<mxfile host="Electron" agent="Mozilla/5.0 (Windows NT 10.0; Win64; x64) AppleWebKit/537.36 (KHTML, like Gecko) draw.io/27.0.5 Chrome/134.0.6998.205 Electron/35.3.0 Safari/537.36" version="27.0.5">
  <diagram name="第 1 页" id="ZbWgp7J0qA6rM-yUH9xa">
    <mxGraphModel dx="1710" dy="996" grid="1" gridSize="10" guides="1" tooltips="1" connect="1" arrows="1" fold="1" page="1" pageScale="1" pageWidth="827" pageHeight="1169" math="0" shadow="0">
      <root>
        <mxCell id="0" />
        <mxCell id="1" parent="0" />
        <mxCell id="mkF6e8B7XCXnZ4I-H9ad-39" value="" style="rounded=0;whiteSpace=wrap;html=1;" vertex="1" parent="1">
          <mxGeometry x="680" y="120" width="360" height="640" as="geometry" />
        </mxCell>
        <mxCell id="mkF6e8B7XCXnZ4I-H9ad-48" style="edgeStyle=orthogonalEdgeStyle;rounded=0;orthogonalLoop=1;jettySize=auto;html=1;exitX=1;exitY=0.5;exitDx=0;exitDy=0;entryX=0;entryY=0.5;entryDx=0;entryDy=0;" edge="1" parent="1" source="mkF6e8B7XCXnZ4I-H9ad-32" target="mkF6e8B7XCXnZ4I-H9ad-40">
          <mxGeometry relative="1" as="geometry">
            <Array as="points">
              <mxPoint x="660" y="480" />
              <mxPoint x="660" y="180" />
            </Array>
          </mxGeometry>
        </mxCell>
        <mxCell id="mkF6e8B7XCXnZ4I-H9ad-32" value="" style="rounded=0;whiteSpace=wrap;html=1;fillColor=#fff2cc;strokeColor=#d6b656;" vertex="1" parent="1">
          <mxGeometry x="520" y="380" width="120" height="200" as="geometry" />
        </mxCell>
        <mxCell id="mkF6e8B7XCXnZ4I-H9ad-1" value="Spring自动配置原理" style="text;html=1;align=center;verticalAlign=middle;whiteSpace=wrap;rounded=0;fontSize=20;fontStyle=1" vertex="1" parent="1">
          <mxGeometry x="240" y="80" width="280" height="40" as="geometry" />
        </mxCell>
        <mxCell id="mkF6e8B7XCXnZ4I-H9ad-7" style="edgeStyle=orthogonalEdgeStyle;rounded=0;orthogonalLoop=1;jettySize=auto;html=1;exitX=0.5;exitY=1;exitDx=0;exitDy=0;entryX=0.5;entryY=0;entryDx=0;entryDy=0;" edge="1" parent="1" source="mkF6e8B7XCXnZ4I-H9ad-2" target="mkF6e8B7XCXnZ4I-H9ad-5">
          <mxGeometry relative="1" as="geometry" />
        </mxCell>
        <mxCell id="mkF6e8B7XCXnZ4I-H9ad-2" value="*-autoconfigure.ja&lt;div&gt;或 第三方 jar&lt;/div&gt;" style="rounded=0;whiteSpace=wrap;html=1;fillColor=#d5e8d4;strokeColor=#82b366;" vertex="1" parent="1">
          <mxGeometry x="300" y="160" width="160" height="40" as="geometry" />
        </mxCell>
        <mxCell id="mkF6e8B7XCXnZ4I-H9ad-4" style="edgeStyle=orthogonalEdgeStyle;rounded=0;orthogonalLoop=1;jettySize=auto;html=1;exitX=0;exitY=0.5;exitDx=0;exitDy=0;entryX=1;entryY=0.5;entryDx=0;entryDy=0;" edge="1" parent="1" source="mkF6e8B7XCXnZ4I-H9ad-3" target="mkF6e8B7XCXnZ4I-H9ad-2">
          <mxGeometry relative="1" as="geometry" />
        </mxCell>
        <mxCell id="mkF6e8B7XCXnZ4I-H9ad-46" style="edgeStyle=orthogonalEdgeStyle;rounded=0;orthogonalLoop=1;jettySize=auto;html=1;exitX=1;exitY=0.5;exitDx=0;exitDy=0;entryX=0;entryY=0.5;entryDx=0;entryDy=0;" edge="1" parent="1" source="mkF6e8B7XCXnZ4I-H9ad-3" target="mkF6e8B7XCXnZ4I-H9ad-40">
          <mxGeometry relative="1" as="geometry" />
        </mxCell>
        <mxCell id="mkF6e8B7XCXnZ4I-H9ad-3" value="&lt;font style=&quot;color: rgb(0, 0, 0);&quot;&gt;导入 starter&lt;/font&gt;" style="rounded=0;whiteSpace=wrap;html=1;fillColor=#fff2cc;strokeColor=#d6b656;" vertex="1" parent="1">
          <mxGeometry x="520" y="160" width="120" height="40" as="geometry" />
        </mxCell>
        <mxCell id="mkF6e8B7XCXnZ4I-H9ad-8" style="edgeStyle=orthogonalEdgeStyle;rounded=0;orthogonalLoop=1;jettySize=auto;html=1;entryX=0.5;entryY=0;entryDx=0;entryDy=0;" edge="1" parent="1" source="mkF6e8B7XCXnZ4I-H9ad-5" target="mkF6e8B7XCXnZ4I-H9ad-6">
          <mxGeometry relative="1" as="geometry" />
        </mxCell>
        <mxCell id="mkF6e8B7XCXnZ4I-H9ad-5" value="META-INF/spring/org.springframework.boot.autoconfigure.AutoConfiguration.imports" style="rounded=0;whiteSpace=wrap;html=1;fillColor=#d5e8d4;strokeColor=#82b366;" vertex="1" parent="1">
          <mxGeometry x="120" y="240" width="520" height="40" as="geometry" />
        </mxCell>
        <mxCell id="mkF6e8B7XCXnZ4I-H9ad-6" value="配置项：org.springframework.boot.autoconfigure.xxx.XxxxAutoConfiguration" style="rounded=0;whiteSpace=wrap;html=1;fillColor=#d5e8d4;strokeColor=#82b366;" vertex="1" parent="1">
          <mxGeometry x="120" y="320" width="520" height="40" as="geometry" />
        </mxCell>
        <mxCell id="mkF6e8B7XCXnZ4I-H9ad-9" value="组件1" style="rounded=0;whiteSpace=wrap;html=1;fillColor=#dae8fc;strokeColor=#6c8ebf;" vertex="1" parent="1">
          <mxGeometry x="160" y="400" width="80" height="40" as="geometry" />
        </mxCell>
        <mxCell id="mkF6e8B7XCXnZ4I-H9ad-13" style="edgeStyle=orthogonalEdgeStyle;rounded=0;orthogonalLoop=1;jettySize=auto;html=1;exitX=0;exitY=0.5;exitDx=0;exitDy=0;entryX=1;entryY=0.5;entryDx=0;entryDy=0;" edge="1" parent="1" source="mkF6e8B7XCXnZ4I-H9ad-10" target="mkF6e8B7XCXnZ4I-H9ad-11">
          <mxGeometry relative="1" as="geometry" />
        </mxCell>
        <mxCell id="mkF6e8B7XCXnZ4I-H9ad-10" value="xxx.a" style="rounded=0;whiteSpace=wrap;html=1;" vertex="1" parent="1">
          <mxGeometry x="540" y="400" width="80" height="40" as="geometry" />
        </mxCell>
        <mxCell id="mkF6e8B7XCXnZ4I-H9ad-12" style="edgeStyle=orthogonalEdgeStyle;rounded=0;orthogonalLoop=1;jettySize=auto;html=1;exitX=0;exitY=0.5;exitDx=0;exitDy=0;entryX=1;entryY=0.5;entryDx=0;entryDy=0;" edge="1" parent="1" source="mkF6e8B7XCXnZ4I-H9ad-11" target="mkF6e8B7XCXnZ4I-H9ad-9">
          <mxGeometry relative="1" as="geometry" />
        </mxCell>
        <mxCell id="mkF6e8B7XCXnZ4I-H9ad-11" value="xxxProperties" style="rounded=0;whiteSpace=wrap;html=1;fillColor=#dae8fc;strokeColor=#6c8ebf;" vertex="1" parent="1">
          <mxGeometry x="340" y="400" width="120" height="40" as="geometry" />
        </mxCell>
        <mxCell id="mkF6e8B7XCXnZ4I-H9ad-14" value="触发" style="text;html=1;align=center;verticalAlign=middle;whiteSpace=wrap;rounded=0;" vertex="1" parent="1">
          <mxGeometry x="460" y="150" width="60" height="30" as="geometry" />
        </mxCell>
        <mxCell id="mkF6e8B7XCXnZ4I-H9ad-15" value="生效" style="text;html=1;align=center;verticalAlign=middle;whiteSpace=wrap;rounded=0;" vertex="1" parent="1">
          <mxGeometry x="380" y="280" width="60" height="40" as="geometry" />
        </mxCell>
        <mxCell id="mkF6e8B7XCXnZ4I-H9ad-16" value="提取属性" style="text;html=1;align=center;verticalAlign=middle;whiteSpace=wrap;rounded=0;" vertex="1" parent="1">
          <mxGeometry x="240" y="390" width="100" height="30" as="geometry" />
        </mxCell>
        <mxCell id="mkF6e8B7XCXnZ4I-H9ad-17" value="绑定" style="text;html=1;align=center;verticalAlign=middle;whiteSpace=wrap;rounded=0;" vertex="1" parent="1">
          <mxGeometry x="460" y="390" width="80" height="30" as="geometry" />
        </mxCell>
        <mxCell id="mkF6e8B7XCXnZ4I-H9ad-18" value="组件2" style="rounded=0;whiteSpace=wrap;html=1;fillColor=#dae8fc;strokeColor=#6c8ebf;" vertex="1" parent="1">
          <mxGeometry x="160" y="460" width="80" height="40" as="geometry" />
        </mxCell>
        <mxCell id="mkF6e8B7XCXnZ4I-H9ad-19" style="edgeStyle=orthogonalEdgeStyle;rounded=0;orthogonalLoop=1;jettySize=auto;html=1;exitX=0;exitY=0.5;exitDx=0;exitDy=0;entryX=1;entryY=0.5;entryDx=0;entryDy=0;" edge="1" source="mkF6e8B7XCXnZ4I-H9ad-20" target="mkF6e8B7XCXnZ4I-H9ad-22" parent="1">
          <mxGeometry relative="1" as="geometry" />
        </mxCell>
        <mxCell id="mkF6e8B7XCXnZ4I-H9ad-20" value="xxx.a" style="rounded=0;whiteSpace=wrap;html=1;" vertex="1" parent="1">
          <mxGeometry x="540" y="460" width="80" height="40" as="geometry" />
        </mxCell>
        <mxCell id="mkF6e8B7XCXnZ4I-H9ad-21" style="edgeStyle=orthogonalEdgeStyle;rounded=0;orthogonalLoop=1;jettySize=auto;html=1;exitX=0;exitY=0.5;exitDx=0;exitDy=0;entryX=1;entryY=0.5;entryDx=0;entryDy=0;" edge="1" source="mkF6e8B7XCXnZ4I-H9ad-22" target="mkF6e8B7XCXnZ4I-H9ad-18" parent="1">
          <mxGeometry relative="1" as="geometry" />
        </mxCell>
        <mxCell id="mkF6e8B7XCXnZ4I-H9ad-22" value="xxxProperties" style="rounded=0;whiteSpace=wrap;html=1;fillColor=#dae8fc;strokeColor=#6c8ebf;" vertex="1" parent="1">
          <mxGeometry x="340" y="460" width="120" height="40" as="geometry" />
        </mxCell>
        <mxCell id="mkF6e8B7XCXnZ4I-H9ad-23" value="提取属性" style="text;html=1;align=center;verticalAlign=middle;whiteSpace=wrap;rounded=0;" vertex="1" parent="1">
          <mxGeometry x="240" y="450" width="100" height="30" as="geometry" />
        </mxCell>
        <mxCell id="mkF6e8B7XCXnZ4I-H9ad-24" value="绑定" style="text;html=1;align=center;verticalAlign=middle;whiteSpace=wrap;rounded=0;" vertex="1" parent="1">
          <mxGeometry x="460" y="450" width="80" height="30" as="geometry" />
        </mxCell>
        <mxCell id="mkF6e8B7XCXnZ4I-H9ad-25" value="组件3" style="rounded=0;whiteSpace=wrap;html=1;fillColor=#dae8fc;strokeColor=#6c8ebf;" vertex="1" parent="1">
          <mxGeometry x="160" y="520" width="80" height="40" as="geometry" />
        </mxCell>
        <mxCell id="mkF6e8B7XCXnZ4I-H9ad-26" style="edgeStyle=orthogonalEdgeStyle;rounded=0;orthogonalLoop=1;jettySize=auto;html=1;exitX=0;exitY=0.5;exitDx=0;exitDy=0;entryX=1;entryY=0.5;entryDx=0;entryDy=0;" edge="1" source="mkF6e8B7XCXnZ4I-H9ad-27" target="mkF6e8B7XCXnZ4I-H9ad-29" parent="1">
          <mxGeometry relative="1" as="geometry" />
        </mxCell>
        <mxCell id="mkF6e8B7XCXnZ4I-H9ad-27" value="xxx.a" style="rounded=0;whiteSpace=wrap;html=1;" vertex="1" parent="1">
          <mxGeometry x="540" y="520" width="80" height="40" as="geometry" />
        </mxCell>
        <mxCell id="mkF6e8B7XCXnZ4I-H9ad-28" style="edgeStyle=orthogonalEdgeStyle;rounded=0;orthogonalLoop=1;jettySize=auto;html=1;exitX=0;exitY=0.5;exitDx=0;exitDy=0;entryX=1;entryY=0.5;entryDx=0;entryDy=0;" edge="1" source="mkF6e8B7XCXnZ4I-H9ad-29" target="mkF6e8B7XCXnZ4I-H9ad-25" parent="1">
          <mxGeometry relative="1" as="geometry" />
        </mxCell>
        <mxCell id="mkF6e8B7XCXnZ4I-H9ad-29" value="xxxProperties" style="rounded=0;whiteSpace=wrap;html=1;fillColor=#dae8fc;strokeColor=#6c8ebf;" vertex="1" parent="1">
          <mxGeometry x="340" y="520" width="120" height="40" as="geometry" />
        </mxCell>
        <mxCell id="mkF6e8B7XCXnZ4I-H9ad-30" value="提取属性" style="text;html=1;align=center;verticalAlign=middle;whiteSpace=wrap;rounded=0;" vertex="1" parent="1">
          <mxGeometry x="240" y="510" width="100" height="30" as="geometry" />
        </mxCell>
        <mxCell id="mkF6e8B7XCXnZ4I-H9ad-31" value="绑定" style="text;html=1;align=center;verticalAlign=middle;whiteSpace=wrap;rounded=0;" vertex="1" parent="1">
          <mxGeometry x="460" y="510" width="80" height="30" as="geometry" />
        </mxCell>
        <mxCell id="mkF6e8B7XCXnZ4I-H9ad-33" value="配置项：org.springframework.boot.autoconfigure.xxx.XxxxAutoConfiguration" style="rounded=0;whiteSpace=wrap;html=1;fillColor=#d5e8d4;strokeColor=#82b366;" vertex="1" parent="1">
          <mxGeometry x="120" y="600" width="520" height="40" as="geometry" />
        </mxCell>
        <mxCell id="mkF6e8B7XCXnZ4I-H9ad-35" style="edgeStyle=orthogonalEdgeStyle;rounded=0;orthogonalLoop=1;jettySize=auto;html=1;exitX=0;exitY=0.5;exitDx=0;exitDy=0;entryX=0.5;entryY=1;entryDx=0;entryDy=0;" edge="1" parent="1" source="mkF6e8B7XCXnZ4I-H9ad-34" target="mkF6e8B7XCXnZ4I-H9ad-33">
          <mxGeometry relative="1" as="geometry" />
        </mxCell>
        <mxCell id="mkF6e8B7XCXnZ4I-H9ad-47" style="edgeStyle=orthogonalEdgeStyle;rounded=0;orthogonalLoop=1;jettySize=auto;html=1;exitX=1;exitY=0.5;exitDx=0;exitDy=0;entryX=0;entryY=0.5;entryDx=0;entryDy=0;" edge="1" parent="1" source="mkF6e8B7XCXnZ4I-H9ad-34" target="mkF6e8B7XCXnZ4I-H9ad-45">
          <mxGeometry relative="1" as="geometry" />
        </mxCell>
        <mxCell id="mkF6e8B7XCXnZ4I-H9ad-34" value="&lt;font style=&quot;color: rgb(0, 0, 0);&quot;&gt;开启注解&lt;/font&gt;&lt;div&gt;&lt;font style=&quot;color: rgb(0, 0, 0);&quot;&gt;@EnableXXX&lt;/font&gt;&lt;/div&gt;" style="rounded=0;whiteSpace=wrap;html=1;fillColor=#fff2cc;strokeColor=#d6b656;" vertex="1" parent="1">
          <mxGeometry x="480" y="680" width="120" height="40" as="geometry" />
        </mxCell>
        <mxCell id="mkF6e8B7XCXnZ4I-H9ad-38" value="生效" style="text;html=1;align=center;verticalAlign=middle;whiteSpace=wrap;rounded=0;" vertex="1" parent="1">
          <mxGeometry x="400" y="670" width="60" height="30" as="geometry" />
        </mxCell>
        <mxCell id="mkF6e8B7XCXnZ4I-H9ad-40" value="场景" style="rounded=0;whiteSpace=wrap;html=1;fillColor=#9933FF;fontColor=#FFFFFF;" vertex="1" parent="1">
          <mxGeometry x="720" y="160" width="80" height="40" as="geometry" />
        </mxCell>
        <mxCell id="mkF6e8B7XCXnZ4I-H9ad-41" value="配置" style="rounded=0;whiteSpace=wrap;html=1;fillColor=#9933FF;fontColor=#FFFFFF;" vertex="1" parent="1">
          <mxGeometry x="820" y="160" width="80" height="40" as="geometry" />
        </mxCell>
        <mxCell id="mkF6e8B7XCXnZ4I-H9ad-42" value="组件" style="rounded=0;whiteSpace=wrap;html=1;fillColor=#9933FF;fontColor=#FFFFFF;" vertex="1" parent="1">
          <mxGeometry x="920" y="160" width="80" height="40" as="geometry" />
        </mxCell>
        <mxCell id="mkF6e8B7XCXnZ4I-H9ad-45" value="功能开关" style="rounded=0;whiteSpace=wrap;html=1;fillColor=#9933FF;fontColor=#FFFFFF;" vertex="1" parent="1">
          <mxGeometry x="720" y="680" width="80" height="40" as="geometry" />
        </mxCell>
        <mxCell id="mkF6e8B7XCXnZ4I-H9ad-49" value="" style="shape=image;verticalLabelPosition=bottom;labelBackgroundColor=default;verticalAlign=top;aspect=fixed;imageAspect=0;image=data:image/png,iVBORw0KGgoAAAANSUhEUgAAAb4AAAJeCAIAAABEQ/ehAAAgAElEQVR4Ae29/XcU153/qf9if/XJZGYnk7NnZzebI3bH62NPPNnM+ozzzXe/54wz843jGckzmQRrhBAGy44sA0KoGxBPMghhgawoRiAkGikSYIyJwkNAFk9qRLDAiGf0YNBjd6vBZ3erbtWnb99bVerqrlZVdb85fezb9XAfXnXvq25VtepTEI3F8QEBEAABELBFoMDW1tgYBEAABEAgGotDnZh0gwAIgIBtAlCnbWQ45YIACIBA1tV57fpXoa7jnaFj7BPqOn7vwSi4gwAIgICvCWRXnee/GHxr2fs1gQ831O1in9XVW1a+W3vr1j1fU0PlQQAE8pxAdtVZv7Nlz8ft4xOT9Bkde7xjV+vKiprhG3fyHD2aDwIg4F8C2VXnhs2N7R295E2WGB17vOujfUtLK4XP8pVr937cPj0TyQbNSDhYWFBQULCkNjyfjfwzz9OpGkaiXUVKSwsKA0OZ1wo5gAAIGBJwQZ3jE5Nj40++uHC1fyDMf/pOfVFRGQh1HTesaIYLnRJThtWw2N2pGkKdFpCxCgScImClzraDvcM3b8slDd+83XawV14uLzGcdQqTUP5r24Huuq1Ncj5YkjqBrKozEipWJ7TBwahHJ++pg8KWIJAJASt19hztqwk2CPYcvnm7JtjQc7QvlVLtqrO9o3fD5sZUcsY2ZgSyqs7BwBKo04w8lucVASt1RmPx7t6TvD2ZN7t7T6bIyCl1kg7Um3gFRaF5WlIYGNLGs7Ku+JA6G6K1RSF242/J+t8F6F5nJDpUq34x3Jc17RC7X6jcMgweYr7QMzdsO5Xoeg2pJhat0yaPrK7SXVHDtQRN30khg7mnYWfAwnwgsIA6eXva9WY0FrdW59dPpmfnohHu0m8uEnvwaEzgTi6gQcurkxZqCXU8S7uYqLNQnUNRFkVdrOiEN2mVktC8LFQvGotLxSXJPSkP1cWD0YT69bWO1VCujFaEbjruTKMXXlBQoLfdbC3UKR93LMlnAgurk+xZE2xIfb7JmFqo8+sn09FY/PAfo6Ufzb65fYZ9/mPHTEPv3NRs0l/46M9PksyVEIRoBOUZurxWz4St1WadZEPdlUoR+paaTThlJFWA7zT6LkkbyHXQrZTdGi5QrvZLA9mVaq0s10Zjca0JOnMeAtIgkFcEUlIns6ddb1rPOmfnol3non+zavKDfXObDkfZJ9gZ+fvV06v3zfLHIOECdZLEfnNDC4tC2vMKfgmfZlnpdktSJ/18R79EVdXJnoRwP2NKWqtf7PNTOSqOLXS7htqPk4zJyK3jfsykt1ShpHHj1kKdfLdEOs8JpKrO9DBZzDoj0fllH81+sG/u4ZNv+E/H2fmX3psSipPdREsSgtBnTPzlvLQ2HXXqs0VVrEbqlK/ZCwND7tVQUidPxlydCjfLtVCn0C3xNZ8JuKbOaCz+5vaZTYejvDcfPvnm2KX498snzQ4JXTBeiRzWHuToF4/6RTeTo5k+UlCnLhph8khX92Z1Y8tdryEpmx7jJJHRWyfd3FTJWK5NqNP8tq81HKwFgZwhkF11yn+ISb/iTF2d+rV24pkGP6dLLGUp9XEH6SOdWacwr0wUkHQrk+8BnqohtT1RcY5MNBbXTZq8Xn9MZL1Wn5aq++onLR4F0iCQJwSyq0759R/0HpC01SlMBgsDXeyXRspo1sc/6SMNdapX3/QcScmTv2A37BaCOt2tIbXdkAyrf5IBC5TfA/Dtsl6bcCvUiQgLeUwgu+qMxuLCS+fo7XPRWPw/dswEOiLCBXvvQPxvVplesNMI5wSR9b/U1mRh0xTeryHBRAIEQMAugayr06JCu47M/f3q6Y6z88cuxdmndyD+r1tn/2PHjMVebFVWxXSoSLnxpxWkPTmx/TYN79dwQcjYAARAwIyAm+qcmo1/sG/2xfemvl8+yT7/x8rJX+yYGRlNun40rHqWxZR8H1D5Znqj07B6/DN3dv1utll6yxNXzYma2q5hekVjLxAAAR/HJsqqOvWbm7qW9FuotnqM92toqznYGARAgCfg5qyTrwfSIAACIOAjAlBn0h99+ujIoaogAAIuEoA6oU4QAAEQsE0A6rSNzMUTHYoGARDwCAGoE+oEARAAAdsEoE7byDxy0kM1QAAEXCQAdUKdIAACIGCbANRpG5mLJzoUDQIg4BECUCfUCQIgAAK2CfhGneGh4cPdx/nPyO0HHjn/oBogAAL5RsAf6jzff6WkrCqwsWHj5kb2qV5fv2LVuhs3DMLE59shRHtBAAQWn4A/1LmzsbW5pYNekzw+MTk2/mT3nv0r313/1ci9xaeGEkEABPKcgD/UuWnL7vaOXl6d4xOTo2OPdzS2Li2tFD7lq6pbWjtnZiN5fmjRfBAAgewR8LE6mT0vXhzqHwjzn75TX1RUBrt7TmSPGnIGARDIcwKLoc62g73DNw1uSg7fvN12sDeVA2A46xQmofzXtgPdW7bvTSVnbAMCIAACaRBYDHX2HO2rCTYI9hy+ebsm2NBztC+VSttVZ3tH76Ytu+Wc6R2aShwjPSCP8trgwuChwBLl9Zx6FA1+S1ooZ4glIAAC+UlgMdQZjcW7e0/y9mTe7O49mSJ0R9TJbEjvbD8UCA5GldfRa29c595nzOKa0ZaRcLBW92yKFcZmIAACuU1gkdTJ29OuN6OxuDPqVIOM02STjquqzkR0iggLJsyZlLZEAgRAAAQYgcVTJ9mzJtiQ+nyT1dIZdVKAdf2qnGXOLtjZDFSJKWRiWPQYEAABECACi6pOZk+73nRq1snanIiZrgsU6qTegAQIgECKBBZbnSlWS9jMkVknnye7m8ku3kV1RruU50aBrId35+uDNAiAgL8I5JE6I+FgkS5EVZ1asHVBndFYnEXEpLuikVAxpf11dFFbEACBLBHwhzrlP8Tkf8Upp5tbOnY2tsrIFEtq/zRvak/Y9Yt32oVNS7Vt8cgoZvu9MkQSCRDISQL+UKf8+g96D4icCGxsKCmrOt9/JScPGBoFAiDgBQL+UGc0FpdfOse/gE5Ih4eGvQAXdQABEMhVAr5RZ64eALQLBEDAjwSgTtzFAwEQAAHbBKBO28j8eIZEnUEABJwlAHVCnSAAAiBgmwDUaRuZs+cu5AYCIOBHAlAn1AkCIAACtglAnbaR+fEMiTqDAAg4SwDqhDpBAARAwDYBqNM2MmfPXcgNBEDAjwSgTqgTBEAABGwTgDptI/PjGRJ1BgEQcJZA3qlT/lv4kdsPnGWK3EAABHKeQH6pU34DU/X6+hWr1t24YRDrOOePPRoIAiCQNoH8Uqf83s+x8Se79+xf+e76r0bupQ0RO4IACOQbgfxSp2GgjtGxxzsaW5eWVgqf8lXVLa2dM7ORbPQJ+dX02SgFeYIACGSJANQ5OT4xOTr2+OLFof6BMP/pO/VFRWWwu+eE4+i1eMXSq+kdLwgZggAIZImAn9TZdrB3+KbBTcnhm7fbDvamAshw1inH56AlbQe6t2zfm0rO2AYEQCCvCPhJnT1H+2qCDYI9h2/ergk29BztS+Ww2VVne0fvpi27U8kZ24AACOQVAT+pk4Vx5+3JvJl6YHen1KncqSzqYoEzldBv6qV34mtB8aHoPOtG2rW5Fh8usZzudWob8Llxu+dVX0RjQcBHBHymTt6edr0ZjcWdVKceqz0SDhYyM6qBMyNqGPcCPYjmYKC4NqxoVLi/KaqTckve3Uc9CVUFgbwi4D91kj1rgg2pzzfZQXVSndxDHsWD3FSRtCj0JDVAsTbxpG0EpepR4BPzUyETfAUBEPACAV+qk9nTrjcdnnXq80o5krty5S6KVbtiJ8OK6uRyUy/8oU78gSwIeJqAX9WZ3mnHyVknJzvyIKsVqVO7eNcnpFazTi43qDO9g4u9QGAxCUCdyu86zT5mT9gVV3KyM1VnqLigYAm71ylcidMu9JiIjjrUSSiQAAHPEsgvdcp/iGkmTba8uaVjZ2OrfPDsqLOgKKQ+JtKeJpnc6+REDHXKwLEEBLxGIL/UKb/+Y+PmRrNPYGNDSVnV+f4r8jFLUZ36TFO90VkYHFQmoVCnp29gyccaS0DAkEB+qTMai8svnTvcfdzsEx4aNqSGhSAAAnlOIO/UmefHG80HARBwhADUietHEAABELBNAOq0jcyRUxYyAQEQ8DUBqBPqBAEQAAHbBKBO28h8fapE5UEABBwhAHVCnSAAAiBgmwDUaRuZI6csZAICIOBrAlAn1AkCIAACtglAnbaR+fpUicqDAAg4QgDqhDpBAARAwDYBqNM2MkdOWcgEBEDA1wSgTqgTBEAABGwTgDptI2OnyoHh2K4jcx/2aJ9dR+ZuPdJCufn6XIrKgwAIpEIA6kxHnZ9ejBaumPznTTNF22bZ57/Vzvzwg6mrt2OpQMc2IAACficAdaajzrKm2V//du7hk2/oc+/rb5Y1zf7d+1ODt1KypxzNze89CfUHgbwiAHWmo843t89sOhwlb7LE/a+/eXvv7PfLJ4XPi+9NfbBvdmo2qSCoM6+GGRqbewSgziSjpXiADdX58Mk39x9/83k4fuxS0qfj7Pzfr57edWQuxcyxGQiAgPcJ5J062w72Dt+8LR+Y4Zu32w72yssNl5ipU5iH0tdAR+Q/dswYZoWFIAACfiSQd+rsOdpXE2wQ7Dl883ZNsKHnaF+Kh9CuOjcdjr65XVQnBcWMxuLa9bsWrV2MX0S1ol0Mt6fNkAABEMg2gbxTZzQW7+49yduTebO792TqrB1X52CgmMUc5u+BqnHbE7GII2pMTRZf03D71OuPLUEABDIkkI/q5O2Zhjejsbjj6uSPompMZeLJNFoYGGJrzYIM0/Z8JkiDAAhklUCeqpPsWRNssDXfZAcjG+pULsYT/7RrdkWXhcFBSaPRWNxw+6z2FWQOAiBABPJXncyeaXjT8VlnJNqlalPTJT+LpIt0NaFdvFtsT8cVCRAAgawSyGt1pk3W2VmncE9TuDBXZpdFXcrCoi5WYevt024UdgQBEEidANTp5O866ddIQsL6CbuqwgL2/IdNMwsKtBmo8vA9VFxQsKSwUNtAX2K6ferHHluCAAikTQDqTEed8h9iCq4Uvv76t3NlTbPCQaJfGkVjcXWmqd7pLAwOKq7k1Mku59U7npSDxfa0DRIgAALZIwB1pqNO+fUf9B4QOfHPm2YKV0x+ejEqHEV2JS4sxFcQAAFfEIA601FnNBYXXjpHb5+TE7uOzA0Mi+8EEX545Iu+gkqCAAgQAagzTXUSwfQSwqOe9DLBXiAAAm4RgDoXW510m5I9F3LrwKNcEACBTAhAnYutzkyOFvYFARDwCAGoE+oEARAAAdsEoE7byDxy0kM1QAAEXCQAdUKdIAACIGCbANRpG5mLJzoUDQIg4BECUCfUCQIgAAK2CUCdtpF55KSHaoAACLhIAOqEOkEABEDANgGo0zYyF090KBoEQMAjBKBON9V5ZfB6Z+gY/7k1ct8jPQPVAAEQsCAAdbqmzjPnLpWUVdVubNhQt4t91tZsL19Z/eXwiMUBwyoQAAEvEIA6XVNn/c6W5paO8YlJ+oyNP2nc0/Z2Rc3NW3e90DlQBxAAATMCUKdr6tywubG9o5e8yRKjY493NLYuLa0UPstXrt37cfv0TMTsQC7acv4NzUKhWiRkPRCIsDZ7Xy2qlL1CDXN2pCaOZGJYPSx0kADU6S11jk9Mjo497h8IC5++U19UVAZCXccdPPZpZMWHiZd3d0Wd1lWSK5m9JU7VBOrM3jFyMGeoM011th3sHb55Wz4Swzdvtx3slZfLSwxnncIklP/adqC7bmuTnI93lriiTu8036maZE+dLJYq3nboyJGCOtNUZ8/Rvppgg2DP4Zu3a4INPUf7Ujk2gjrvPxi7Mnj9/oMxXpd8ur2jd8PmxlRydmsbqNMR8lCnIxiznQnUmaY6WRh33p7Mm6kHdufV2T8QXvHOuqWllSveWdc/EOaNSWkLdepxNNXAcAWJ2JnRWJyNw0OBJco6PTYci8HJti4MdNUWKvGKha7Gb6NvOUQZDkbn2fZJmxUF+aw0k2qVSgSq4wvSY8orG9FsSHNHOFio7ZtUPblF5BpyN71Pmg+QR8FE9eYkNdw7NbFuvtIKngzHTTsiJms5JgqAwoByNPFJmwDUmVHv6e49yexp15vRWJxX5+rqLS2tnZNTMy2tnaurt5Au+YSZOpm8yDtsXNHAUMahoqWEGdkQou3lDeTORG4S1CkULWQ1GCiuDSuG1Yymi5vyZ7ZKVDUQZEbW8tG310yhN0Eoha8SyZrlqdlQ39Gi4d6pidYc/jynqpAoCcyFw73AWjW6Kh16OhBIpEEA6sxInTT3rAk2pD7fZMeJV2f5quoz5y5FY/Ez5y6Vr6rmjUlpQ3UKY57lrDpCm+WpoknM+OTtaaZm1nvU0biESTDZU11FyZMXi6zUTBLVYGWxYS+PZKHOerBl4xYlV2lImfbqzuV3tG64d2qiqzOJFR1QuRXWbeTXqucw5ZDJwM0OPZZbEIA6M1Uns6ddbwqzzqbmAxWVwX3t3RWVwabmA6RLPmGsTnVKIgwGXnaKhjiVyI6w8B0NNpryJHlKKlrOSpshsitkLri8ps6oajpuhsWWC3VWqqHEptf0La+lJXIFEtKxrK22owdqwhOmcUvNlw8fD8d6LR1NobdQKUjYIgB1OqBOW8RpY37W+Wh0oqPzyNb6vR2dRx6NTvDGpLQr6lTdlzQDSnhqARkpExy61Wg462Qo2IBXttUVT0UQK3KHoVlo+7TV6amaUHPk5lvL0Xot1Ek8HUlAnZ5QJ/nRImGsTvXuFT8rFK7RhHEoX/GxJfzNUOpYqrDE6zvK0DorXnZClSh/PsGXpRSRPEWlQtNXpwTKrOGu18Si+TJznq31WqiT72+Zp6FO19Qp/yGmhTfHJyabWzrqd7bIh1x4+sGPfFPR6Be/2gb6cyTeJnyaL1S0mFlWyiW2pl19XqnMXvlsI+Fgkf6cl1et6o7Eo62UWqTOWC1mnXpLk2/aUsM9UxO9nqbNtz7c1msN3cofXKRTJwB1uqZO+fUf9B4QOVG7saGkrIo9SpKPLpOLdkeRc5mhOhODU92hKKTecFQfQ/Pq0fylZ6r8X92GV6dFVvpsSN2/MDiomJSpM1Fc8u7JUisMaj+o0iqp/RbKsEVUJb7+jBLd62Rf+UbxDfdcTcybr9/cpAOT4MbaaNEZ+H2FKxW5U2GJNQGo0zV1RmNx+aVz/AvohPSVwevWxzK9tbJu0svHwb1IhQ7mKWeVSsO9UxO5/ljiLgGo0011unvsWemGzxbcrdgiCUt6zCW32js1keuGJe4SgDrzTp2DgSV0sabdedQfbbvbF6n0LAkrjYZ7pyYEBwmPEIA6806dyff1Eo8jPNIjDe9mOlU3RYX0T/8rI4vMs6RO7x8CCyZYxQhAnfmoTvR+EACBDAlAnVAnCIAACNgmAHXaRpbhyQq7gwAI5AABqBPqBAEQAAHbBKBO28hy4ISJJoAACGRIAOqEOkEABEDANgGo0zayDE9W2B0EQCAHCECdUCcIgAAI2CYAddpGlgMnTDQBBEAgQwJQZy6oU36NyK2R+xn2DOwOAiBgQQDq9L065ZfXra3ZXr6y+svhEYsDj1UgAAKZEIA6fa9O+ZXJY+NPGve0vV1Rc/PW3Uw6R+b76i85VkLXZu/vwTOvJ3IAAbsEoE731TkzG9m4uenqtRt2Dx7bno9xRO+ZHx17vKOxdWlppfBZvnLt3o/bp2ci6ZVlay/+neTayzE99oomW83BxiDAE4A63VdnNBb/9MTZ6tod6dnTUJ3jE5OjY4/7B8LCp+/UFxWVgVDXcb4TZCmtTjnFd5hnqSxkCwKLTADq9IQ6M7GnmTppBiok2g50121tWoR+xocbWoTiUAQILCYBqNMr6kzbnoI67z8YuzJ4/f6DMcGY9NUwsibrc9qbj9kbLbmLa7plydZQIG+KUcGiialrtcjDSW/GVMMlCfc6+RA6hYGu2kIvvjl0MYciyvIXAajTQ+pMz568OvsHwiveWbe0tHLFO+v6B8KkSz5hpk7mssQL5MPB2pASTI0tT+hSjUvBNtPUWaA8BaJYtRSXWJh18uoUAjdqnk3h3cP+Gl2obQ4TgDpzSp2rq7e0tHZOTs20tHaurt7CG5PShuqk+aPQ1/lHPbSKwkzKD39ole7cxL1OUqecp1npVCISIOA1AlCnh9SZ3sMiftZZvqqaBRw+c+5S+apq0iWfMFanSYwzw6BvNJ2UlZeSOqWy5Hy8Nk5QHxAQCECdXlFnet6MxuK8OpuaD1RUBve1d1dUBpuaD/DGpDTUKYwBfAWBNAhAnZ5QZ9reFNT5aHSio/PI1vq9HZ1HHo1OkC75hLE6o11F+i1LvhvJF9fRWJymlvJskVbZvGBXSqebpHwFkAYBbxKAOt1XZzZ+Es+7UkgbqlMXYkHicVComKVVGyYtVyzHniBFh4Qn46moU48HmXwbFOqMud8VvSkpb9YK6vR9f5X/EFNwpfC1uaWjfmeLYXdkD9O1aLvc8+6k5eovjdju6c062b7aU3W1sKKQqGDD6mEhCHiHANTpe3XKr//YULfL7FO7saGkrIo9SvJOL5QV7J26oSYgYEgA6vS9OqOxuPzSuc7QMbPPlcHrhl3BxYWGz/FdrA+KBoEFCUCduaDOBQ+z1zYYDCxJ/PZefUJVwP3xktdqi/qAgEwA6oQ63SHA3+vEs3V5ZGKJxwlAne6Iw+PdAtUDARCwJgB1Qp0gAAIgYJsA1GkbmfW5CGtBAATygQDUCXWCAAiAgG0CUKdtZPlwRkUbQQAErAlAnVAnCIAACNgmAHXaRmZ9LsJaEACBfCAAdUKdIAACIGCbANRpG1k+nFHRRhAAAWsCUGcuqFP+G/ZbI/etDzzWggAIZEIA6vS9OuU3J62t2V6+svrL4ZFMegb2BQEQsCAAdfpenfL7OsfGnzTuaXu7oubmrbsWxx6rQAAE0iYAdbqvzmy8JX507PGOxtalpZXCZ/nKtXs/bp+eiaTdYxZzRwqiqb1YHm9XwpvkPUMA6nRfnemFXyeF8WHd+BfCj4497h8IC5++U19UVAZCXcdpdy8noE4vH508rxvU6Ql1ZmJPM3XyGuXTbQe667Y2LUK/ZyHhKNhRGiVCnWlAwy6LQwDq9Io607anoM77D8auDF6//2CM1yWfNgvr5niHgzodR4oMvUMA6vSQOtOzJ6/O/oHwinfWLS2tXPHOuv6BMG9MSluok8lOC+vG3VhkATC05Xo4TCVcsB4Rk0XNVDcoPhSdp/iatAt7JzybRR4KLFGW6/mbZS7c3+RnoErR4WBhIvfgoFoo7SIU4Z3xhprkDAGoM6fUubp6S0tr5+TUTEtr5+rqLaRLPmGmThb2MhH3IhysZRGDQ8UUPZicxTbT1KkHcNfMq4fSlGediv6SgwazQumingmR6sDrkk+re2mxiLU66CKWi8iZsYqGeIoA1OkhdX564mx17Y6r127Y6iL8rLN8VTWLdnnm3KXyVdW8MSltqE6aPwpFM/2Ry9haCrYuaEufbGoTTxN1amvVSWtXka5dKpcypykkm1GSOlmhZFvd5ppJVXUmiqBskQABZwlAnV5RZ3rejMbivDqbmg9UVAb3tXdXVAabmg+QLvmEsTrV61/eR6yfsWmgsJwmfbJwefEZq1OfHurKKzDL3FSd/KU6XbPrtxHIsM6OE+QGAgIBqNMT6kzbm4I6H41OdHQe2Vq/t6PzyKPRCd6YlM4NdQrCpW4NdRIKJLJKAOp0X53Z+Ek8iVJOGKtTjegrXJgveE2d6azTqFB+3sp7kNKG9xBokNBmtAQJEMgGAajTfXVmeFzlP8SUdckvaW7pqN/ZIheqOitx+RwJFbOZnbycnhqlok5ex7LXLDI3u2DX76hyVQ0HC/VnU3IRckuxBAQyJwB1+l6d8us/NtTtMvvUbmwoKatij5Lk3sOed2v3D3UZKXNP9SG7fl9ReyCjzkmHagsL+Cjq/JyR35EJ1NBrZplbqJPsqVWJu39qWITcUiwBgQwJQJ2+V2c0FpdfOtcZOmb2uTJ4PcNOg91BAASgzlxQJ/oxCIDAIhOAOqFOEAABELBNAOq0jWyRT24oDgRAwIMEoE6oEwRAAARsE4A6bSPz4AkQVQIBEFhkAlAn1AkCIAACtglAnbaRLfLJDcWBAAh4kADUCXWCAAiAgG0CUKdtZB48AaJKIAACi0wA6oQ6QQAEQMA2AajTNrJFPrmhOBAAAQ8SgDqhThAAARCwTQDqtI3MgydA+fUft0bue7CeqBII5AwBqNP36pRfOre2Znv5yuovh0dyppuiISDgNQJQp+/VKb/qeGz8SeOetrcram7euuu1Dof6gEBuEIA63VdnNgJsjI493tHYurS0UvgsX7l278ft0zOR3Oi+aAUIuEUA6nRfndFY3KmwbnwgjdGxx/0DYeHTd+qLispAqOu4Wx2O4h2ZxWVzsWIoGgRSJwB1ekKdmdiTDybMq9Ms3Xagu25rU+pdxPEt5SDDjheBDEEg2wSgTq+oM217Cuq8/2DsyuD1+w/GzNRpGBGT9TMWdV0I+CNH++GXGO5C4d5Y1DY1w+JD0XkxplBBAR/0Ldt9HfmDgIMEoE4PqTM9e/Lq7B8Ir3hn3dLSyhXvrOsfCBva00ydang1LWSb5j41XBq/XLncDgeVSG4hxYP8qqRdomq4N92MbJpJ0d8w63RwACMrtwhAnTmlztXVW1paOyenZlpaO1dXb0ldnUx8/P1HVZGKSdkqmh5SzMsFdyngAlXSXrjX6dZQR7nOEoA6PaTO9B4W8bPO8lXVLFDwmXOXyldV21CnOpfUwwUn/p8Ixc5moOp0kmk06VI9sYcyIdVmoFw4YqjT2XGL3FwnAHV6RZ3peTMai/PqbGo+UFEZ3NfeXVEZbGo+YFed/KyT75p0kU5TUeHKnUCtvAIAACAASURBVN9YnVdaxWfHBbuAC1/9SADq9IQ60/amoM5HoxMdnUe21u/t6DzyaHTChjqjXUX6rUnDfqw8GirqUiaP+lySGZAu5Pm9MOvkaSCdkwSgTvfVmY2fxBtKky00e0ykXlNrz3+0SaVuSeVrqLigYElhYWIDelxOc1VlTqrukoo6DZ2bk2MMjcpJAlCn++rMsGPJf4hp4c3xicnmlo76nS2GhTJ7avctuYc86jW4Mi3ln/ywHAx3sVanLmKlHAjU8EBgofcJQJ2+V6f8+o8NdbvMPrUbG0rKqtijJO/3TtQQBDxLAOr0vTqjsbj80rnO0DGzz5XB657tjqgYCPiFANSZC+r0S29DPUEgZwhAnVAnCIAACNgmAHXaRpYzp000BARAIG0CUCfUCQIgAAK2CUCdtpGlfZrCjiAAAjlDAOqEOkEABEDANgGo0zaynDltoiEgAAJpE4A6oU4QAAEQsE0A6rSNLO3TFHYEARDIGQJQJ9QJAiAAArYJQJ22keXMaRMNAQEQSJsA1JkL6pT/hv3WyP20+wR2BAEQWJAA1Ol7dcpvTlpbs718ZfWXwyMLHn5sAAIgkB4BqNP36pTf1zk2/qRxT9vbFTU3b91Nr1tgLxAAAWsCUKf76szGW+JHxx7vaGxdWlopfJavXLv34/bpmYjcLfjo6nxa3hJLQAAEoE731Zle+HXqu3xYN/798KNjj/sHwsKn79QXFZWBUNdx2p0SpEvtHe/Jb4mnzZAAARCIxuJQpyfUmYk9zdTJa5RPtx3ortvaJPd+Uqe8Sl6CqJYyEyzJKwJQp1fUmbY9BXXefzB2ZfD6/QdjvC75tFlYN6gzr0Y+GpshAajTQ+pMz568OvsHwiveWbe0tHLFO+v6B8K8MSmdijp5jbIJJov1xoJfJoVy40KzsXDtQlQ4CvHG7VV8KDpPHddwr2gszupwKLBEDf8WHOR2oX2RAAG3CECdOaXO1dVbWlo7J6dmWlo7V1dvIV3yCVvqFIKtHwpoCpMv2Fm04dqw4kT+bqmW1g2riVgPU2y2l6bOAiX4u1tjA+WCgAUBqNND6vz0xNnq2h1Xr92wOGDyKn7WWb6qmkW7PHPuUvmqat6YlLanznCwsCAp9jqrgKBO5kcKyK7YU9lxSW14ntco21edfioTT4u9dHUmzU/ltmMJCLhFAOr0ijrT82Y0FufV2dR8oKIyuK+9u6Iy2NR8gHTJJ+ypMzpUW6hegic/cBfVqRpWu1Tn/lcU0tXJTR4T6jTfiy7YcZ3ulhpQrjUBqNMT6kzbm4I6H41OdHQe2Vq/t6PzyKPRCd6YlLalTtZ7ErcjdYEaqpOfdVK302ad5uo03AvqJIBIeJMA1Om+OrPxk3gSpZxIQ52s76r3JbWLd1Gd0a4i/W6m0NGt1Gm+F9QpYMRXrxGAOt1XZ4Z9Qv5DTFmX/JLmlo76nS1yofxTdUpHwsGiwBDbOPmRjuhK9gCdppDKRFWdaVqoMxqLm+0FdcoHCEs8RQDq9L065dd/bKjbZfap3dhQUlbFHiUJHZF0KWhLWa79Ux770F5sElrATTaZB7VtE5f26t1Sowt2lpXhXkIdqFAkQMAjBKBO36szGovLL53rDB0z+1wZvO6RzodqgIB/CUCduaBO//Y/1BwEfEoA6oQ6QQAEQMA2AajTNjKfniRRbRAAAQcJQJ1QJwiAAAjYJgB12kbm4IkLWYEACPiUANQJdYIACICAbQJQp21kPj1JotogAAIOEoA6oU4QAAEQsE0A6rSNzMETF7ICARDwKQGoE+oEARAAAdsEoE7byHx6kkS1QQAEHCQAdUKdIAACIGCbANRpG5mDJy6nspJf/3Fr5L5TmSMfEAABmQDU6Xt1yi+dW1uzvXxl9ZfDI/LxxhIQAAFHCECdvlen/KrjsfEnjXva3q6ouXnrriO9xGuZ8K8W9VrdUJ88IQB1uq/ObATYGB17vKOxdWlppfBZvnLt3o/bp2ci/u3f2mvn9Vcp+7chqLmvCUCd7qszGos7FdaND6QxOva4fyAsfPpOfVFRGQh1HfdRrxXiIPmo5qhqDhOAOj2hzkzsyQcT5tVplm470F23tclHfRrq9NHByp+qQp1eUWfa9hTUef/B2JXB6/cfjJmpc4GImHxsdC6gELu9eCiwRAk9pF8sJ4IMqwGJKKZbIrKQSW7RWDxpXz1D2pEK6q5VS9QCHhUUqjHmhHudZlkx57Jd+brlz/BGS7NHAOr0kDrTsyevzv6B8Ip31i0trVzxzrr+gbChPa3UKWtRt6cW3E3/qrgvVFxQoMUWJhUytWkGNM8tObimGvdNt6dBQWrMYd59vDrNsmLeTNQnEByMJmLSZW9EIec8IQB15pQ6V1dvaWntnJyaaWntXF29xb46iw9xflFjVWpLVKMl1gpiYqPFYns9brCSA3vOw6tQnTZq4TaFghQpm6vTIis2FeVLyZMhjWYuDgGo00PqTO9hET/rLF9VzQIFnzl3qXxVtW116lM/1vn4CR0/0aM5piAmi+31Warix6Tra/1KnCawQkELqJO/IZCclfYgnpv5Ls6IQil5QgDq9Io60/NmNBbn1dnUfKCiMrivvbuiMtjUfMDL6hS0S+MtDXWaZUWKV6SafFag4pAAgfQIQJ2eUGfa3hTU+Wh0oqPzyNb6vR2dRx6NTthWZ0Hikpye2LBbhILR0rhgpxwM96XuS5vREssL9q6iAu3ZEW0vJ9TpcOK2rLwBloCAXQJQp/vqzMZP4g2lyRYu8JhIfxAk6EY2mnpnM+Ejg+2Vi/Au1iOFteK+4WChvqVckKxafhuzrCLhYJH6OJ6/V2B3eGB7EDAjAHW6r06zY5PicvkPMS28OT4x2dzSUb+zRc6c+Uj7VZB635C/EOZtRfsyIer3GLXnPGytdW76UyN9V+5q2rogwx8nMXtqeQlZaUuT6kb1RwIE0iYAdfpenfLrPzbU7TL71G5sKCmrYo+ShE5j6Cxhm9S/Optb6uViSxBYHAJQp+/VGY3F5ZfOdYaOmX2uDF437FvOys7Z3AwrjIUg4CIBqDMX1OlIB3JWds7m5kgDkQkIOEgA6oQ6NQLOys7Z3Bzs8cgKBBwhAHVCnSAAAiBgmwDUaRuZI6csZAICIOBrAlAn1AkCIAACtglAnbaR+fpUicqDAAg4QgDqhDpBAARAwDYBqNM2MkdOWcgEBEDA1wSgTqgTBEAABGwTgDptI/P1qRKVBwEQcIQA1Al1ggAIgIBtAlCnbWSOnLKczUT+G/ZbI/edLQK5gQAI8ASgTt+rU35z0tqa7eUrq78cHuGPNNIgAAIOEoA6fa9O+X2dY+NPGve0vV1Rc/PWXQf7CrICARAgAlCn++rMxlviR8ce72hsXVpaKXyWr1y79+P26ZkI9YBFSOBVIIsAGUUsMgGo0311phd+nToKH9aNfz/86Njj/oGw8Ok79UVFZSDUdZx2z3ZCi0zJvbw92yUifxBYBAJQpyfUmYk9zdTJa5RPtx3ortvatAh9C0WAQA4TgDq9os607Smo8/6DsSuD1+8/GON1yafNwrrlcC9H00DAcQJQp4fUmZ49eXX2D4RXvLNuaWnlinfW9Q+EeWNS2kydLPAkC4PGB3SLhIOFevg1Ppo5u4OphYErDO5QovoGWeRh1k3pFicl2HK+IH4Xs4Ic7/TIEAQyJwB15pQ6V1dvaWntnJyaaWntXF29hXTJJwzVKQTsPRTQJKjGvNTCSQp3LRUhiuGCE4EnmQeZgnl1siCaLLClEuY3HKwNzQvxfoWCMu/lyAEEHCcAdXpInZ+eOFtdu+PqtRu2DjM/6yxfVc2iXZ45d6l8VTVvTEobq1OdWvKTTUVn0aHawkSkdWa6wgLNj6o6iw9FFfHRxuRENcCvtpbUqTlRD7lOzbQuiDZDAgS8QwDq9Io60/NmNBbn1dnUfKCiMrivvbuiMtjUfIB0ySeM1alaUplFchfdSVfQdM1eoMmUhEi9WdGlujtTIWmUtuSnorSXbmSuAD0pqJzfBWkQcJcA1OkJdabtTUGdj0YnOjqPbK3f29F55NHoBG9MShuqk/XChCuZAY2motRfSYi0hMyoJhIX77QlbUC78OVClAIWfPUyAajTfXVm4yfxJEo5YaFOTWShYuUeZmheuAEq9GMSIr9cWVjUpUw/uaty2tIsQ7PlfM5Ig4CnCECd7qszww4h/yGmrEt+SXNLR/3OFqHQSDhYFBhiC/lHQ+oty8TtTmXaqDuRhMhnxfYtTL5Dym8pZhgqZpNNcTlXEJ8/0iDgEQJQp+/VKb/+Y0PdLrNP7caGkrIq9ihJ6IKK4LR/iWvtaCzOpKat4e6E8kKkrNj8kb9hGo3FhS3ZQ3YtQ13EFgVR5kiAgHcIQJ2+V2c0FpdfOtcZOmb2uTJ43Tv9DzUBAZ8SgDpzQZ0+7XyoNgj4lwDUCXWCAAiAgG0CUKdtZP49T6LmIAACThGAOqFOEAABELBNAOq0jcypsxbyAQEQ8C8BqBPqBAEQAAHbBKBO28j8e55EzUEABJwiAHVCnSAAAiBgmwDUaRuZU2ct5AMCIOBfAlAn1AkCIAACtglAnbaR+es8efXhjR/t+Xnhh/9lyx/2zEQWNYawv0ChtiBgiwDUmWvq/HpqvutcdE3bbEnjTEnjzA/qK1f0bOu/F36h8bW/++hnp29dsNU/sDEIgIAhAagzd9Q5G4l/dGzub3899eK7U6Ufza5rj6xrj/xvdb/ccvL09LOZidjM3osHvxV84e2e9aOTXxv2BiwEARBIkQDUmSPqHH8y/4sdMy9XTu39LHZ34puHT7TPf21ZeuzG2elnM+xzb2b0v+8v/d72V0999UWKXQSbgQAIyASgzlxQ52wk/u87Zv5b7cyV209JmizxX1uWfnozoU4m0P2Dv/ubnf+P3BucWiK8oNOpbNPOx5H6OJJJ2k1wcEe+IXw68yKczS3z+mQ1B6jTfXVmGGAjGlOu0/+ucor35lejzz67Mt9xdv6VJlGdk/EZM3UmvYSYe6uxrS6ohb1Md3e+LE/VxxUvsPdMU4A8Hk7aaWqIg0eKQqIKb7lOu5Le3xHqdF+d0Vg8k7BuE5Pzf/vrqT2fxWi+eeD0/IvvTf3fq6f/edPM/1j9H03nlHud7HN1bPTlXf/5v24zuGBXRykXHDhU7OyItTsYvFYfMo7dhiy4PXu1vhzVTouxXFTsrI+caohZtRdsb25sAHV6Qp2Z2PN3/dGX3pui+5ufh+P/+8rJfafmmUn/Ye/SnacVdU4+nflooONbwRf+p7XVB86OCd3Xa4HVvFYfOUyIADCTr2YOUifdxYcs45KmUS7UmQY0eReo0yvqTNuea/fPlu6epSnnv+2Yee+3c/T13zs++PWn249cu/J/7nrtbxtfP/qnS6W7Z9funxW6Ahu9fBhLfgNtsKljWI4pxNYeCixRVqnX6TQ4tUtCFiNT2zMxsVWu8tTom2xNYaCrtlAJqKle/XUpoZK4yEXu1iehThMIcjR5YRbJAilrDPRY9mJEpoICfqavYCzqIoZ2CQyaVJWOTqJR0XmWudYNtOMRHFSXaxVIPnxJEav0avM5WwChFnGZJPUKvqWeTUOdHlJnevb8z92z1e0RcuXLlVMHTmtTzodPvvnjyFd/99Eb36//yfrPm+9+rSyvbo/8525RndooMrGVMiR0LSaGhO41ba3+lR+QNOqYEQRBs5FDihHyEb7yQ8jN+uj3cJkKyXTsHEBtsbc2qpwnaF/NYtxkUwWVFGsvJQLJVaXzkLKvvopPsyYkWhQO1oYUpQ4GimvDSkI7mvq+8mRZzo0axQOx7hX8gfZyGurMcXU+fPLNoyffTM4+nY08rVpTd2vkwcWb87Udc4adMjEL4DyoWzVpXqBuqS1Rh3HSWhpCwmDTJ1nKxmzg0UBNjEyuaE/VR24mQZDbYt1Sfq3acAN1UuZ0ruJZWVQmpeOl6088Uhx8wx6i3UPQZqNitbnclFV8hfkmW/QKw0K9uRDq9JA603tYZH3BPjb1bDYav3vv0ePJmaWllRcvD92+82AuatVqdVgWFBQkpjk0JKgTq0NI20BeS0u0QcINSDICm4bQrMRQnaw4j9SHGiVDkNuiNEe5F6Egsl5rqE5heq5P0xLnJ4vK8LN+uarCWsrHsJK0u34I2EW7Vg2LWadhbgkg0SG6M8OKoF5BJXo/AXVaSWQxj1963ozG4haPiR5NfjMXjZ84ebakrKp/ILy0tPLsuUvLVqxpat4f0W9vGbZRGKs0wGhjGgbCUGQb0PaOqDNh1QJt0FL+i1kfi0IXMAV36W1YYdlBKl7t5iL/PzrTWFTG8IiYHS/Kx7AJpPUCnbyaD9SpSAPq9IQ60/ZmNBa3+HHS4XPRr27dKymrOvbpqfGJyaWllf0D4SvhL8tXVn/2+WkaxoYJfpAoA0wfPGxjGnKGA5XWWqlTvcHHX9MJUy2hVq7XxwICqznfluTrU6urV9ITaVGDpl9TMw7CQovKaEcktePFHSmDSip10+fOrBr89FA2vnVutK9FrxAOupe/Qp3uqzN7P4n/eir+yf6uDXW7xicmxycmKz/YNHTt5vjEZHtHb/X67Xy/VIdB4gpd6NzqQE0871aHU+KxBg0YypCWCPnwQtFHeKJQvhSv1UevrSkE1QsJJgIi67WCeU0ngJzFeFa64BKlL7xW9zIdKf3QJDKJhIqLQvN8Q1jF6CQqVFs4iVo02bpXUC/yeALqdF+dmXcRsz/EjMTiW+ubf9t2mKmT/nvm3MVlK9YI5bKRQJeH/ByKDTDt50fqFjRFEgYMy5MG5IKDRBvkWp5Jt8C8Vh9rCOQvHWDilMCYMActuLYwMKQySdzWpMOkAVFvHFtXJpW17IdHbEuWFpug36FmElRqXhgcVPSdqBs1ivUWq9y4W+cL9gpqspcTUGcuqDMaixu+/iMSjbd+cqh+x8ckTZb4Xc+JNeu2pd4vhSGR+o62tpRHlNnuXquPWT2zt9yagPXa7NUqr3KGOnNEndFYXH7p3KWb85cuXyspq7p4+RrZ887dR+++H2zvPJJ6R1+coWh2oSrX02v1kWuY7SXWBKzXZrtueZI/1Jk76mRdln/V8fqDs3PReEtr57IVq9sO9pw+e6G75/N33w+uq62fnrHxxvgsDcXBwBK6LaBdjer34KyHn9fqY13bbKy1JmC9Nhv1ycM8oc5cU6dhJ+471V+7cWfZ22vW1mxr7zxiy5uGdzMNS0ljoTLI6Z9+c23BfLKnhvTqs2CFHd/AmoD1Wscrk58ZQp15oc787NxoNQhkjwDUCXWCAAiAgG0CUKdtZNk7jyFnEAABvxCAOqFOEAABELBNAOq0jcwvZ0XUEwRAIHsEoE6oEwRAAARsE4A6bSPL3nkMOYMACPiFANQJdYIACICAbQJQp21kfjkrop4gAALZIwB1pqnOa9e/CnUd7wwdY59Q1/F7D0azd5yQMwiAgKcIQJ3pqPP8F4NvLXu/JvDhhrpd7LO6esvKd2tv3brnqaOLyoAACGSJANSZjjrrd7bs+bid3kU0PjE5OvZ4x67WlRU1wzfuZOlQIVsQAAHvEIA601Hnhs2N7R29vDqZPXd9tG9paaXwWb5y7d6P2+2+ccM7XQQ1AQEQkAlAnY6pc3xicmz8yRcXrvYPhPlP36kvKioDoa7jMn0sAQEQ8CmBvFNn28He4Zu35aM1fPN228FeebnhEsNZpzAJ5b+2Heiu29pkmBUWggAI+JFA3qmz52hfTbBBsOfwzds1wYaeo30pHkK76mzv6N2wuTHFzLEZCICA9wnknTqjsXh370nensyb3b0nUz9ajqiTvY9Wi5Wmvx1dDzqovv5XX6jE21JD77KXAvMh1ZK2L+DCGUqhevnX3xoXzRWhBPDSA7UnFcEv57bnq5Q6RmwJAv4lkI/q5O2Zhjejsbhj6ixIBKfV4xFqkRS1GGeqqpg3KRbFoYDmNT7Qq7J7OFhYUMA2E3YR3vSuqNOgaG1fllVtaD6NKvl3JKDmIGCLQJ6qk+xZE2ywNd9kcC3UOTk1OzsXFT737j2Sf7Sk+ouLyxpVQuny0zdVhYpJmRP5VYrUpHmlHkpbyVNeK846+ZCwatEFUnwLpm++XOsq2ep52BgEfE0gf9XJ7JmGN61nndFYfHrwsyeH18ufyb5mvq/wLqM5I7sk5/9bFJrXZqAsEHbydTTvNX6SuLA6+UtvdboqZJVGlfjWIQ0CuU0gr9WZ9qG1mHVGY/HJY9vHNv8X+TOx55d8iYbqlP1Fu7C5p2JVdhVv5Dv1El6dqEpzUr44Pk2KlIs2nO1SfWhHqhK/CmkQyG0CUKeTv+scn5hMvbuI/pJkZ5gV3d+U55XJF+zK5T9/Dc4Xx6cVA5oUbbZcqBhVSViOryCQwwSgznTUKf8hJv2KMxqLf91S+uCt/0H+jH5QyPckwV+6+BK3O5VJn3r/MRIOFgWG2L40rzTYPlSsPPtRH+9oz4X0G5rMbvTcfOGiQ8Usn8HAEj7PBavENxBpEMhhAlBnOuqUX/9B7wGJxuJzY3dmrv5e/syOhPmeJPuLbKjd6+RuRyoba/+0R/AsK82JhqvYwx+2qqiLL45PU5WSsuIeGTF7aiWkUCXKEAkQyGECUGc66ozG4sJL5+jtc6k/JsrhXoWmgUDOE4A601SnRc9I8TGRRQ5YBQIg4HECUKfz6vT4IUf1QAAEMicAdUKdIAACIGCbANRpG1nm5yvkAAIg4HcCUCfUCQIgAAK2CUCdtpH5/WyJ+oMACGROAOqEOkEABEDANgGo0zayzM9XyAEEQMDvBKBOqBMEQAAEbBOAOm0j8/vZEvUHARDInADUCXWCAAiAgG0CUKdtZJmfr5ADCICA3wlAnW6qMzw0fLj7OP8Zuf3A710K9QeBfCAAdbqmzvP9V0rKqgIbGzZubmSf6vX1K1atu3HDIEx8PvRFtBEEfEQA6nRNnTsbW5tbOugdyeMTk2PjT3bv2b/y3fVfjdzzUR9CVUEgDwlAna6pc9OW3e0dvbw6xycmR8ce72hsXVpaKXzKV1W3tHbOzEbkPqq9iph7CTG/DXtHMr06Pum9xerri4tC8/JC9mJjCl/MMmSbCQv5sijNv0pZy5x7d7Ia0iMp/odcAaow5YkECHiKANTpLXUye168ONQ/EOY/fae+qKgMdveckHuP4p3CJYUFSW+PZ5upcdmWFHIxitWNtTDuclZ89A5hrRZYuKiYonQIG/BfDdTJRf4wUWcirjKfFdIg4E0CUGea6mw72Dt80+Cm5PDN220He1M52IazTmESyn9tO9C9ZfteOWd1ylZcVJQUxI1tpqwqKlbW6AGL0lenEvio+JBRGE65SqI6C4uLCguU3SkScnLkd9YEWitniCUg4DUCUGea6uw52lcTbBDsOXzzdk2woedoXyqH2a462zt6N23ZLeeseUeRWtLEU41nuaQ23OWIOhUbFnVpEeGTr77lKknqDA6qzqUInUI+UKfMEEs8TgDqTFOd0Vi8u/ckb0/mze7ekykecofVGZ0/VFTA34hUfKTIzgF18gHZVc0lOVpur4E6o9odVTb/hTplaFjiLwJQZ/rq5O1p15vRWNxxdap3KrWLYjImJVi/VMWnRbdU/5e4iFZuQSpX5QZa5GeFTKO8o+Ueb6hOTZfqZbuROk1rJeePJSDgOgGoMyN1kj1rgg2pzzfZUXdeneoNRCY1RYLqM3cDdZo8izdTJ8tBvNbWb1zqQmTi07RrqE4lf/2y3UidSRJ3fWCgAiBgTQDqzFSdzJ52vZmNWacWxl0xo/LTH82hGV+wq1NRfkqopenRk9zDzNRJgeaLQvKPk6BOB7qifCywJEsEoE7X+qvjs071Rz/qnc0i9Wm4+jg7w1mnNj1MnqgaLuQ7qIU69Vmq8pMpmsnyNwT4fJAGAc8SgDpzSp00raN7kZmq0+TXSGZ3RVlHt1Bn4rK9AOp0re951kc+qhjU6Vr3lf8Qk/8Vp5xubunY2dgq9y1hysZ+Bl8bnmdbGqhTuPjmfmkkC1GRoH5bky9auAHKr4rG4tbqJL9j1ilww1cfEYA6XVOn/PoPeg+InAhsbCgpqzrff8VHfQtVBYEcJgB1uqbOaCwuv3SOfwGdkA4PDedwR0TTQMBfBKBON9Xpr76C2oIACBABqBPqBAEQAAHbBKBO28jotIMECIBA3hKAOqFOEAABELBNAOq0jSxvT7NoOAiAABGAOqFOEAABELBNAOq0jYxOO0iAAAjkLQGoE+oEARAAAdsEoE7byPL2NIuGgwAIEAGoE+oEARAAAdsEoE7byOi048fE6VsX/Fht1BkEvEYA6swjdZ4dufijPW94rQuiPiDgRwJQZx6p8/W25c8Fnr/68IYfeyrqDAKeIgB15os6u66e+E7dy6/s/de6PzR5qguiMiDgRwJQZ16o89Prp7+7+Yd9I/2f3jz1avOb2eup/EuOnSpFCwZXkBQq2anMF8wnGy1asFBs4H0CUGeOq/P66Eh597o/C75w8ta56WczY9GJbwVfuPf4UTa65oIxi9IolL2OnuKFpJFDJrtko0WZ1Af7eocA1JlT6hweu/ObC6H1JxuWda359853/+6jnz0XeH55z9pHkbHpZzPs879se+XIn/q80wWtayLEC7HeWF4rxBeRN8ASEEiPANSZI+ocHrvzi873ngs8/+OWf1vf19B84WDvl7+/9Oja49gTkiZLvNVVte1Uc3rdZfH3ksMl2aoD1GkLFzZOnQDUmQvqvHzv+ve2v1r1Wd147GtBlI/v3Jia0xZOPZuZfHS79fQnJYc/kLuIFqlNDfpGMda1O31qXEw9/noX7cvWHgosUVapAYfpzqB2qVvUpUadY7smRVrnw7sXBrpqudjCSflrpRYUFCypDc/rsYiNMlQjzmubq5XhilYW01U/3TxlG1NjKSCdYYtYrZL25WIsG9KjhiCRewSgTt+rjagAfgAAIABJREFUc3pu7qXGn+46/4kgTfb1Ue/vvvrVsrHTfQ+mHjxsbx/++b99dvrQ623Lha7MRj7J5VAgOKiGcVdUqGsxEQdYD6KprdW/knoGownHsTw1s+hbMqmRs+R8qHrCrHMwUMyCfQp3IZmIqf6RcLA2pMQEZeVSQcqSULESxlhdSy2iHeWaKEt0RfKV4StgRo9agUTuEYA6fa/OfZe6X2h8zdCb089mHh07MvzaG8rnjX9nic/OHv5ZW5nQldlkioRCa1WVJM0W+djF8loSDW8WlhvtKIhGFdyQ4axTN50y36QqUUIVmVI3rSzdy7SBmnNXES9KdWZKohQqpqk/OXiy0CIeEd2HNaPH1wTpHCMAdfpenW+FqvYMtJupc7SnW1MnE+hrb+w7+lFZ91qhH2v24SaYbAMSB23Pz7zktbRE1llCnerlf5KDojbUqRSR+KeqU8owUVvVlVSWoeNSbRF/1yJRAWUCa0aPqoFE7hGAOn2vzp/vL+8dPimrc/Lxg/u7Gm/8878K6rzy3984Wl8bmY3IvZmZRdGCfolKKqSNUxWNZMPM1ald9euzwsSscxHVSRYmIJSQ6dEqJHKPANTpe3Wu7KnddrZZUOdU9PGt1esEaSa+/vRfHrXuN+vNqpK0u4HqFC/pgp2XKZ9mudESq1mndNWsOdHwilu5NaldsPPWjsbiCRdLGVLTWM7kO/leAZ8Pf6+WcuBapFz7Cxf7tBkleHq0EIncIwB1+l6dJ4bPfqfu5bHoBLPnw7nRz7/6Y2n36v9569//8VDLVyXLE8ZUr9lPl/5qaui60JUj4WBRYIgt5A2liEN5qqI9VRe8QFqh3GiJhTr1W4qJO5h8KYJG+crwpetTPE3rqka5hz+hYqZL2ZXylvxTI6q/3CJdslwp4WChSsaMHmWCRO4RgDp9r85oLF5xJPjX2155q6vqu5t/+Fd1L3/w2ZYLD69OPVV+Az96/JigzvGbXxn2Y81fiimTpVYY1H6swyyqP5teaI4m3r6kSSIrnSuuoCiU2FhwLq9OkpdSkcLgoDIhTcyImVjVOiZcrz9oUvdIOjdoG/KNtW4RqzYzr7azfltDPxmwxQl6hpyxMDcIQJ25oE5mz+cCz/9fTT/ffLqp+cLB5gsHWy52tod7jzRtHH7tjfA//7zt319jDp2+dSf1vivPwlLfN/UtBV2mviO2BAG3CECdOaLOienJXx/d9Mb+8mVda/hP04YVJ99Z3nv68NfTU1ODQyMr3pu+MZJ6b1skdZo/50m9qtgSBBaTANSZI+o06zRzkzNJqyKxyPRs0pKYFYEsqXMwsISet2g3N7mL39Srhy1BwC0CUKeVONw6Kt4pN0vqTL45mHRr0jttR01AwIIA1Al1ggAIgIBtAlCnbWQWJyKsAgEQyBMCUCfUCQIgAAK2CUCdtpHlyUkVzQQBELAgAHVCnSAAAiBgmwDUaRuZxYkIq0AABPKEANQJdYIACICAbQJQp21keXJSRTNBAAQsCECdUCcIgAAI2CYAddpGZnEisrsqPDR8uPs4/xm5/cBuJtgeBEBg8QlAna6p83z/lZKyqsDGho2bG9mnen39ilXrbty4vfj9ACWCAAjYIgB1uqbOnY2tzS0d4xOT9Bkbf7J7z/6V767/auSeraPo7MbZ+7t1Z+uJ3EDARQJQp2vq3LRld3tHL3mTJUbHHu9obF1aWil8yldVt7R2zhgFFHK292ivzsR7jCxfKOUsc+TmRwJQp7fUOT4xOTr2+OLFof6BMP/pO/VFRWWwu+dEip2MvcmNYvJY7JX6lhaZYBUI5BsBqNNz6hTmofS17UD3lu17U+ygqQsx9S1TLBqbgUA+EIA6faPO9o7eTVt2y52SuY+FxWHTzKT4OXoQR+1KXIuqkxQNTVumbync6+TzpyDDcjWwBATyigDU6W91Mq/RG9cPBYKD0XkllpkaX5e/YB8MFNeG2So1hpp+N1Peklcni5VG+UfCwVourFteDRU0FgR4AlCnz9VpEtVHFiJ/1FUhahNPeUtSJ6Kt8dCQBgGeANTpc3VG1SkkC66rzjfZ0ZWFKMa00MPwylsm1GniZb4DIQ0C+UkA6vS3OlmvjaiOU25ZmlyGMz9S1PJUZ51QJ36iBAImBKDOXFCnJtBQcUFBAbu/KcwlVVcuYfc6o7G4+hwplQv2riL92VF+zizQahAwIwB1+ludkXCwKDDEji7vR6bOxOMd3qraFDVJnbSldl2vz17Zw3p63BQJFVParEthOQjkAwGo0zV1yn+IST/hNEw0t3TsbGyVO6Vya1L7l5hXKg/ZVV0qF/GqWxO/WCoMDiqrNHXKW9K9TlYW5aMUUtQlVwBLQCAPCUCdrqlTfv0HvQdETgQ2NpSUVZ3vv5KHfRRNBgEPEoA6XVNnNBaXXzrHv4BOSIeHhj3YgVAlEMhPAlCnm+rMzz6HVoNADhCAOqFOEAABELBNAOq0jSwHTphoAgiAQIYEoE6oEwRAAARsE4A6bSPL8GSF3UEABHKAANQJdYIACICAbQJQp21kOXDCRBNAAAQyJAB1Qp0gAAIgYJsA1GkbWYYnK+wOAiCQAwSgTqgTBEAABGwTgDptI8uBEyaaAAIgkCEBqNNNdcp/wz5y+0GGRxS7gwAILAIBqNM1dcpvTqpeX79i1bobN24vwoFHESAAApkQgDpdU6f8vs6x8Se79+xf+e76r0buZXJQsS8IgEC2CUCdrqlz05bd7R29wluNR8ce72hsXVpaKXzKV1W3tHbOzEay3SFSzF94HXKKe2EzEMgZAlCnt9Q5PjE5Ovb44sWh/oEw/+k79UVFZbC754RHeh7U6ZEDgWq4RQDq9Jw6hXkofW070L1l+165owgR3OQNsrEkFXW6UrFsNBZ5goBMAOr0jTrbO3o3bdktH0JXDAV1ygcCS/KKANTpb3UmgrWpkd0osGUiMjsXnF2LdlnUldhLjXyZ+MrFetPkSBHek2O68eqMRIdqC/XIcnoOXJ7KqgUrxk4ALBcE3cwrB/m0sVCnv9WpxLOMKtHSed0kRxVWvaYHB1aUp4ssoVc1zqUmLz3mJduyQN9R25hfq68aDBSzCO+aQ/XlqVeMbUl6PRQIDkbnfTqiUO08IQB15po6mb+STKrMHLU4w/xsUZuE6vNEIQK7qs5EwOFoLK5OJLUlQj40WlRrJ0V4p5pYVIx5mbak3JAAAc8SgDpzTp38JTZdRuvTUkV5+sxRcKUmR33OKMuRn8wKa5WviX8m6jSvWOKSXy/dswMGFQMBRgDqzE11ms3gHFendpmvT12tZp2qOs0qptx5ILdCoDHXuiXMmCIBqNO1Pmr4k3j6KZKcSPEJu3DfUOgH9tSpC5Flws80Kc1PRYWLeuFep3XFqJ5qhkm3bmkVEiDgHQJQp2vqlP8QU9Ylv6S5pWNnY6vcdWQlsafbNL9TZnP6RbpNdSau7gWjJatTM50+bUy6YKeHP7pYE1qkikXCwaLAEGua4GK5vVgCAl4gAHW6pk759R8bNzeafQIbG0rKqs73XzHsNMxr9OicJKXdfuSuf+2pszB4KLCE7mGSi4WbpInfIRUGB0PFBdxc1V7FtJK0J1qGLcVCEPAIAajTNXVGY3H5pXOHu4+bfcJDw4vZaWheuZiFoiwQ8AsBqNNNdXq5l0CdXj46qJvrBKBOqNOYANTp+uBEBbxMAOo0FoeXj9ni1A3qXBzOKMWnBKBOqBMEQAAEbBOAOm0j8+lJEtUGARBwkADUCXWCAAiAgG0CUKdtZA6euJAVCICATwlAnVAnCIAACNgmAHXaRubTkySqDQIg4CABqBPqBAEQAAHbBKBO28gcPHEhKxAAAZ8SgDr9oc7Tty74tIeh2iCQkwSgTh+o8+zIxR/teSMn+x8aBQI+JQB1+kCdr7ctfy7w/NWHN3zayVBtEMg9AlCn19XZdfXEtze8WFj/k7o/NC1a/+P/gJ1PZ14BZ3PLvD6LmUM+t30xOS9OWVCnp9X56fXT3938w02nmmpOfvhq85uL0yf4NxkL8YEzrICzuWVYmUXePZ/bvsioF6c4qNOj6rw+OlLeve7Pgi8E+xqnn82cutP/reAL9x4/Wpxu4dT8SAhPtDiV90gp+dx2jxyCrFYD6vSEOofH7vzmQmj9yYZlXWt+1lb2g93/9Fzg+R+3vNl3+/z0s5npZzOTT6f+qu7lI3/qy2pvoMyhTkKRdgLqTBudL3aEOl1W5/DYnV90vvdc4PklH/7k9QPLS7tXv398c+P5TwZHrzFpTj+bmXk2O/Ns9pW9/7LtVLPcqxJBzJXYPlpItcRFN0XoLUjEaEt1bXQ+saWaVkL+RrsSQdf1qEeGdUjELFKDDrH4boKU9UhwWlgiCn+kZVjUxWWSaBoPQcvQsplahCWqLb+xHqGe5WmdW1LEYyUUVHBQx8J2pIK6axMxnShmlFXbuax4wgSEbzLSXiAAdbqpzsv3rn9v+6v/+MnS8w8vkyiFRGQ+pnSU+flfhSpLDn8gd5rBQHFtWHGccDdNGajc8NYkxYfGtF6rD2Z+wLMwbRTkMhIO1oaUos3qIM+85NzIDqyGLHNysf5V9bVeeR5CSs3kdmRNMCxUO0+YY1H31aLOGdPmC1LPMVSQcBIyy4oRI8KHAgk7861G2nUCUKdr6pyem3up8ae/DFU+eTol6FL7+nR2Lh6JxuJVa+pGbj/oufb7D45vs+4x6oDUZmeqU5JmauoMLuW1kjppJph6HSzUKTiC5Uk1FMSkx/hMag7bxVYzrQvV1ZlUilAlXoWq6zWTytWwbPtQbWEiqLI+mVWyYucPvhRr2ljrFgGo0zV17rvU/dfbXnkwN2rozZmnc9H5+bv3Hj2enFlaWnnx8tDtOw/Meok289Kuejk56vpjO/IzHWWX1NbSltaj2rAOVvpQr5oFR1ANZU2TwgQIVD1aTpkIEz3dUEnOUhYqAZA5A5pgYc3XGHP/Y00wqIb5rNMiK63h3MyX2oWEpwhAna6p861QVUnXakNvTj+djc7Pnzh5tqSsqn8gvLS08uy5S8tWrGlq3h/Rb66xbsTcRLc4VQsstjot6pB76hRcT4M5DXWaZUWK5++3UEFIeIQA1OmaOn++v3zN59sM1TkXj351615JWdWxT0+NT0wuLa3sHwhfCX9ZvrL6s89P812HnzEJV7XqNDDp2pMf3guv1SdftBfzIN2Go2pY1MFKneqkTMiNppb2Zp3cwzFhpkmVZ7U1bAIVanjBTjkY7ksQaDNaYrfttCMlVLDiHJnWIuEuAajTNXWu7Kl9s+MdWZ1XRq9NReY+2d+1oW7X+MTk+MRk5Qebhq7dHJ+YbO/orV6/ne8x/OjSLwO5WSf3VJ3fUndE4pm7wVpJnbqaE4M5EiouCs3z+wp1kHXDK0Z1VlJuSn3V504W6mR5FugPZJQMrZupN4Rxsyh0QSzivuFgIV+N5ILstV3PKhIOFgWGWFVVsNqdBP6gI+0FAlCna+o8MXz22xtePHfvwvSzma/nn/x+5I/BvsZ/+Lj4Lzf9YDYS3Vrf/Nu2w0yd9N8z5y4uW7FG6DdsPGsXd8ptO06dhUHt5zJML6qV2O5MYdZr2S9veNnpdwbV7DhhmdWB355NMK1y0284KntFlQcp5Efd2krThFWpN4S4MdfrbUhyk3VuejX0XTlXCu1iZVFBhm1PQEu+s6lkpf1LqhvVHwkvEIA6XVNnNBavOBL8Tt3LrzQX/cXGl/5840uv7Xursb/t7uzDyPx86yeH6nd8TNJkid/1nFizboGH7NSrDAdzimtpM+8nrJtpt/7O5ma3dGzvIwJQp5vqZPZ8LvD897f/uPjgqtLu1aXdqyuObTgzcuHS5WslZVUXL18je965++jd94PtnUdS7F7WFrBem2IRXtjM2YY4m5sX+KAOWSIAdbqszonpyV8f3fTG/vJlXWvo8+GZ30Rj8ZbWzmUrVrcd7Dl99kJ3z+fvvh9cV1s/PaP80jOVj7UFrNemkr9HtnG2Ic7m5hFEqEY2CECdKWkoG+hTybPvVH/txp1lb69ZW7OtvfNI6t4UHjTLZeWMI5xtiLO5ydixJGcIQJ2eVmfO9DM0BARyjADUCXWCAAiAgG0CUKdtZDl28kRzQAAE0iAAdUKdIAACIGCbANRpG1kaJyjsAgIgkGMEoE6oEwRAAARsE4A6bSPLsZMnmgMCIJAGAagT6gQBEAAB2wSgTtvI0jhBZb7L6VsXMs8EOYAACDhFAOr0gTrPjlz80Z43nDrkyAcEQCBzAlCnD9T5etvy5wLPX314I/PjjRxAAAQcIQB1el2dXVdPfHvDi4X1P6n7Q5MjhxyZgAAIZE4A6vS0Oj+9fvq7m3+46VRTzckPX21+M/PjnWIO/Fsw+HSKu1ts5mxuZgUJr0M22yz3li8O3tzjlkaLoE6PqvP66Eh597o/C74Q7GucfjZz6k7/t4Iv3Hv8KI1jnMYuNAI1B3GvQ08jN9rF2dwoWzmRn+pcNLwy8DxcAnV6Qp3DY3d+cyG0/mTDsq41P2sr+8Huf3ou8PyPW97su32eBS+afDr1V3UvH/lT3+L0UVJnhsXJoc0yzDDF3fNEnW7hTfEo5PZmUKfL6hweu/OLzveeCzy/5MOfvH5geWn36vePb248/8ng6DWK+DbzbHbm2ewre/9l26nmxemOUOficM6wFKgzQ4CZ7A51uqnOy/euf2/7q//4ydLzDy+TKIVEZD6mHOD5+V+FKksOfyAfbG2GpQUCS0QP1vQXDhbqQcL4KGkprVVjvgsaZcNVy1K/kDesQ1LYsoICw9BmegRNLT8KTU7TRi6TRNNkCHz8OCWvoqAQFS6pIL3aQtPM3g+dCistQJ6ec1JxephPVm3r3JSG8IdMz5DqRgV11y6hA6vEhVPjaAotMsuKP4jE3JAqFpoRgDpdU+f03NxLjT/9ZajyydMpQZfa16ezc3ElnEbVmrqR2w96rv3+g+MGMd0GA8W14flEFEl9sCmjiAu1qI0iPvit9Vo+Hz3NQjyyUcoGea0aZdOsDvK0iB/bLDcauqyGLHNysf61S2mNXnm5NwtZaW3Xt1fXatEltZzVFvHLyVlUHyolJZJ6WUo+SlxSLkiyqkKCZp0bXyW+qnKgY/WIK1j4Ckt4jVodVfZK1CcQZKFPqb1IpEIA6nRNnfsudf/1tlcezI0aenPm6Vx0fv7uvUePJ2eWllZevDx0+86DBY+oOvC4YMJ6YGG2ozqDS3mtrksajTQTtK4GXwcLdbJVNICFGgrW0KP4Gk885az4qrI07xfV0YpT2CqqA8+Hb6Mqu6Si+S2FtXJlhMoL2/NrLaqqqzOpGpZ4lWjMxq1WVc6v4huLdIoEoE7X1PlWqKqka7WhN6efzkbn50+cPFtSVtU/EF5aWnn23KVlK9Y0Ne+PqBfRwtFVRyNdvXFy1PXHtudnNMouqa2lLdms0GzIGdbBamwbDWCqIe8+VnmylbZKa65qQCkrfndtuk149ARriJItm4Gqkd9JozxhIkALqZ50HU0TN0NKFtvrs9REQ/QKJv7PqmpQDXX+yB8R2sai1QmAyR2AWodEKgSgTtfU+fP95Ws+32aozrl49Ktb90rKqo59emp8YnJpaWX/QPhK+MvyldWffX6aP67MTQX67FIdooutTos6ZEOdfPNZWraVrE7eL3wOtK+a0C5v+Q1kOfKyk9dShnwmttRpVlXSIuVsFy/tqDRBPd8oeoZAUwsxy9P7/2+jQZ2uqXNlT+2bHe/I6rwyem0qMvfJ/q4NdbtYEPbKDzYNXbs5PjHZ3tFbvX47fwj5Mclf+hle3/FjT0nrwmUZimv1EUXL2UCV52UWdbAa28l33FgdxKkldwORVvHNZ2m5YmwJuzcqrxVyUBpY1KXkzxXHb5M6K7r/KFDiK2+Rm3VV6UBQ3dj2vGppG+usEjkk35al5UgsSADqdE2dJ4bPfnvDi+fuXZh+NvP1/JPfj/wx2Nf4Dx8X/+WmH8xGolvrm3/bdpipk/575tzFZSvW8AdV1ZZ2S0ufR3CzTu7RCr+lLtbEgxeDtZI6dTUn7qBFQsVFoXl+X6EO8gCmsW2YGz1d4aeNrL28fXgCLK36KDFnVL8mWqfuy1U7HCzkLKnWf0khd2eQVZtMKuTGt1eedVq3a0HyFlXl0bFW28OrtzoSDhapj+OF6bNMFUssCECdrqkzGotXHAl+p+7lV5qL/mLjS3++8aXX9r3V2N92d/ZhZH6+9ZND9Ts+JmmyxO96TqxZJz5kZ4NNu/JSJhGcOguD2m9Z1Ptm8vTEei27fyeMWCYONT/RTXId9MGprjH89Yw669FyK0i4z646E0pS8yoKKQ9JyH2kM60g/azAC4i/bhVKZwRSYUUjLYkS1y5SrVluFlUVDoRWeR0gm+cK2yT6RvKFubKZ9i/BnCqPRCoEoE431cns+Vzg+e9v/3HxwVWl3atLu1dXHNtwZuTCpcvXSsqqLl6+Rva8c/fRu+8H2zuPpHJcaYjS4wthL2GMCWvxlSfgLCtnc+PrifRiEoA6XVbnxPTkr49uemN/+bKuNfT58MxvorF4S2vnshWr2w72nD57obvn83ffD66rrZ+eUX7pmcrHeohar00l//zZxllWzuaWP0fBay2FOlPSkFuHre9Uf+3GnWVvr1lbs62980jq3sSs08FD5qzsnM3NwWYiK1sEoE5Pq9PWsRQ2th6i1muFrPL8q7OsnM0tzw+Ni82HOnNWnS72KhQNAjlPAOqEOkEABEDANgGo0zaynD+dooEgAAILEoA6oU4QAAEQsE0A6rSNbMHTETYAARDIeQJQJ9QJAiAAArYJQJ22keX86RQNBAEQWJAA1Al1ggAIgIBtAlCnbWQLno6yscHpWxeykS3yBAEQSI8A1OkDdZ4dufijPW+kd4CxFwiAQDYIQJ0+UOfrbcufCzx/9eGNbPQA5AkCIJAGAajT6+rsunri2xteLKz/Sd0fmtI4wOntwv+dNZ9OLzd+L2dz43POXlp4fWf2Cspqzn4kn1UgGWYOdXpanZ9eP/3dzT/cdKqp5uSHrza/meHBTn13GmaaNZLfDZx6PsKWzuYmZJ69rzmgTp+Sz94xzTxnqNOj6rw+OlLeve7Pgi8E+xqnn82cutP/reAL9x4/yvyQp5IDqTOVjS22YREg+LfTW2zs2VV+VGdukPdsl0BYN694c3jszm8uhNafbFjWteZnbWU/2P1PzwWe/3HLm323z7O4b5NPp/6q7uUjf+pbnM4EdfKcoU6eBtKMAGadLttzeOzOLzrfey7w/JIPf/L6geWl3avfP7658fwng6PXKFjmzLPZmWezr+z9l22nmuWOqw1sLdSMFpgo8apjihnLhXhLda0a813QqBbyjBWnX8gb1iEpME5BgWHwHD0MnFZ7mp+SrbhMEk2TIWiVtGysFg6I6sxvXJAI+sYyTwouVBQUIh1RBZwt1zq3pAjAcqwhikNVGOyuXaIBVf+3MHmdCUX0ZLvT4aD2IkEEoE431Xn53vXvbX/1Hz9Zev7hZRKlkIjMx5SjNT//q1BlyeEP6MhRYjBQXBueVzu9GstMHwbKOOQGmCYpPRLkwmv5fPQ0EwpFyo2Eg7UhpWizOsiXjZodVCmz3Gh8shqyzMnF+tcupTV65antlFi4Ocm7WxRNoeioYlrmRqU7W651bmqdtShsGh/9uMg1TIG8QVZsLzq+hwJBs9hWRD5vE1Cna+qcnpt7qfGnvwxVPnk6JehS+/p0di6uRCKqWlM3cvtBz7Xff3BcDIcpdFx1dHERMfXomGwzdQaX8lp+WKppmgkKhQpf+TpYDGBhlAo1FNSgx4k0nXiq7khaa9HYhYpWNE36SJyTTNXpTLnapYDJIWNAyOZKrZRZs6Y/ufmW5JVTrGFW7OzFrxIOLr4SAajTNXXuu9T919teeTA3aujNmadz0fn5u/cePZ6cWVpaefHy0O07D+iwCQlt0sGusvSxpyzU9ce256ctqa+lLa3HlWEdrAawer0sjFKqoaxpUqG2Smss546UG2vYkETRUsXkyhB/gkNLKJ/EXRF1iq3LLslZ+gx34VawOmuN5v7HABpUI6qcAHi8tI1FVgm2yTCpdUgQAajTNXW+Faoq6Vpt6M3pp7PR+fkTJ8+WlFX1D4SXllaePXdp2Yo1Tc37I/o4ZIeQuYlir6vjlptXJg8Ai1FtMYaFIcePxgXrkA11Ut/lE1RJWmjRWP+qU4bP2mvQ/IXUaZYVKV7xc3L/IbZI4Am7a96MxuI/31++5vNthuqci0e/unWvpKzq2Kenxicml5ZW9g+Er4S/LF9Z/dnnp/mOywtCuKpVhpM+A5UH2MJr9WFDw5J5kL+SZdla1MFKnerYFnITp5bcNTKt4ptP6dSbo6hhgaLlC3bTO60Olmt4wb4gfPnIagfFQp1GzSeSlFAPa9K8lVYhAXW6qc6VPbVvdrwjq/PK6LWpyNwn+7s21O0an5gcn5is/GDT0LWb4xOT7R291eu38x2X79/6hRg36+SejfBb6qM08eDFYK2kTl3NieEUCRUXheb5fYU6yJIiFxjmptRXfe4kXyOnoM6UmsPoqbklNYSK1uFoF9H6Vy1z1iJ6YKWq09lyTXMT6xwOFuqnFp4qa6A98npWkXCwKDCk5RAqLtDvpfJdDmlGABfsrtnzxPDZb2948dy9C9PPZr6ef/L7kT8G+xr/4ePiv9z0g9lIdGt982/bDjN10n/PnLu4bMUaoe+yEaVdXindnVMn/WBFvTvGX6Oxwab9XsdkLXu6KgxLJkp1j8QgN6uDfh9ArZ06Jq1y4wZqOupcqLHCw+KkhnBFM7xKPfV/RSH1pwuqp4SKpY6RjppFuda50clGq5d+btPkzn1lZVFBbGovkE8csuQLc67hiZMHVR4JIgB1uqbOaCxecST4nbqXX2ku+ouNL/35xpde2/dWY3/b3dmHkfn51k84t94iAAAL+klEQVQO1e/4mKTJEr/rObFm3QIP2enQCkOFlrOE9VphY+9/das5zpbrbG7eP2q+riHU6aY6mT2fCzz//e0/Lj64qrR7dWn36opjG86MXLh0+VpJWdXFy9fInnfuPnr3/WB755EUO5z1OLRem2IR3tnMreY4W66zuXnn6ORkTaBOl9U5MT3566Ob3thfvqxrDX0+PPObaCze0tq5bMXqtoM9p89e6O75/N33g+tq66dnlF96pvKxHofWa1PJ31PbuNUcZ8t1NjdPHaDcqwzUmZKG3Drwfaf6azfuLHt7zdqabe2dR1L3ptn9L2pIjo1St5rjbLnO5kbHGolsEIA6Pa3ObBxy5AkCIJA5AagT6gQBEAAB2wSgTtvIMj9fIQcQAAG/E4A6oU4QAAEQsE0A6rSNzO9nS9QfBEAgcwJQJ9QJAiAAArYJQJ22kWV+vkIOIAACficAdUKdIAACIGCbANRpG5krZ8vTty64Ui4KBQEQMCQAdfpAnWdHLv5ozxuGxw8LQQAEXCEAdfpAna+3LX8u8PzVhzdc6SIoFARAQCYAdXpdnV1XT3x7w4uF9T+p+0OTfPywBARAwBUCUKen1fnp9dPf3fzDTaeaak5++Grzm4vWRfj3UPDpzCvgbG6Z1yf3cgDhxTmmUKdH1Xl9dKS8e92fBV8I9jVOP5s5daf/W8EX7j1+tDjdgoaf9lJ06Q3k6VXD2dzSq0Nu7wXCi3Z8oU5PqHN47M5vLoTWn2xY1rXmZ21lP9j9T88Fnv9xy5t9t8+z4EWTT6f+qu7lI3/qW5yeQerMsDgWIYcP7JFhhma7Z15Q5jmY1S2ry31a7awyWZzMoU6X1Tk8ducXne89F3h+yYc/ef3A8tLu1e8f39x4/pPB0WsU8W3m2ezMs9lX9v7LtlPNi9MtoM7F4Zx5KVBn5gzTywHqdFOdl+9d/972V//xk6XnH14mUQqJyHxMObTz878KVZYc/kA+zNo1mhbrS4vplnjVcThYqIcnoziOqa5VY74LGmVjVYgsZliHpMBhBQWGwcX0CJpafjQ/1TIs6uIySTRNgMBto+RDAYqTMufuOfBNYCWa5UAFaRAsYWox8vSCkkrXI32yDK1zS4qELsdco+h1hcHu2iV0bKnh4vHi66zXjSIqs90JO7UXiQUJQJ2uqXN6bu6lxp/+MlT55OmUoEvt69PZubgSTqNqTd3I7Qc9137/wXGDmG6DgeLa8Lw6GNTAjfrwUIYQN/C0kcyHn7Vey+ejp1mQRd5NtWrsX7M6yHMifmCz3GjcshqyzMnF+lfTSOisi8sFqZlrMR213NRWsC2pCYcCQRYpU86BHzwpwdTZUhxQw6Zp5y1z+GY1T+zIF2Qeb12vhg0IfJORtiYAdbqmzn2Xuv962ysP5kYNvTnzdC46P3/33qPHkzNLSysvXh66feeB9bHUhwoXTFgPLMx2VOdWKa/VdUmyo5mgdTXUka+VIvuIy02xISlMqCEvO2GVYelCQWx3MpdCRpl8KRJhguZXsQyFHIRSVHUmTXstYLKszJqmG9A4N4uaG+4oV5sjrJxK+ZYuCEFoNb5aEIA6XVPnW6Gqkq7Vht6cfjobnZ8/cfJsSVlV/0B4aWnl2XOXlq1Y09S8P6JeRAtHVB3YdOnGyVHXH9uen87QAKOszNbSlmbSYTkY1sFqYKsXkvzA1tWvCi6aCH3O8idVaVbVmktTKkXElBurKhGhRFFoPrG7AEeavhEZzVnC9krIe610QsR2MQRlhlfbRc/NoubG1ZCqTZWxyMoMAt9kpK0JQJ2uqfPn+8vXfL7NUJ1z8ehXt+6VlFUd+/TU+MTk0tLK/oHwlfCX5SurP/v8NH9EmZsK9NklP+OjIUTbpzh6hSFK+RgaQfGdOnoN65ANdVJz+IRQkFlVaZeEVnQhCjnQlixBEGi5BUzD0i22TzpnGJ1RqFCDaiykTjqdUCaUkCHQKiQWJAB1uqbOlT21b3a8I6vzyui1qcjcJ/u7NtTtYkHYKz/YNHTt5vjEZHtHb/X67fxB5QdkNBanqZnhxR0/8JS0LlyWobhWdwotZ3IRrkP5Yc/y4esg+8g6N9pXmxZxN/VoFd98SgsFmVWVtmcJlZ42VxVyELZMHRedSwRQfP0tcrOuOdGj6snVpm2ss0rkoEx4ExN2Wo6ENQGo0zV1nhg+++0NL567d2H62czX809+P/LHYF/jP3xc/JebfjAbiW6tb/5t22GmTvrvmXMXl61Ywx/RpMGvPUvlLtiVMdHFtue31MVquVZSp67mxDCLhIqVS2Bu7OkTGa0O8uilgW2YG43h9NTJ20pVFVfVcLBQRREJB4sCQxyTpEt+yoHVnOipsksJF8tZLJ1DtCB8cV+95sLVgNYEddZJ1Ra2McvKDALLE/9NhQDU6Zo6o7F4xZHgd+pefqW56C82vvTnG196bd9bjf1td2cfRubnWz85VL/jY5ImS/yu58SadeJDdjY8lNt5hcFBZYhy6qQfsqh3+/hrN6Yw7fc0JmvZo2dedvocU92B87JZHfjt2fC2yk2/dahO3EzvdZp1a2ZwBYNuxkStuMfZCXMpjdC8yfLkcxDcnTouqh7lpsJKKsg6NzqpaJT1c5igRbkgQ8J2IVC2SFgTgDrdVCez53OB57+//cfFB1eVdq8u7V5dcWzDmZELly5fKymrunj5Gtnzzt1H774fbO88Yn1Eaa0gKVrOEtZrhY3x1VlczuaGo+MKAajTZXVOTE/++uimN/aXL+taQ58Pz/wmGou3tHYuW7G67WDP6bMXuns+f/f94Lra+ukZ5ZeeqXysx6f12lTyz6ttnMXlbG55dSC801ioMyUNuXXA+k71127cWfb2mrU129o7j6TuTbOLO2oIRi+hSCXhLC5nc0ul/tjGcQJQp6fVmcnxth6f1mszKTcn93UWl7O55SRw7zcK6sxZdXq/86GGIOBfAlAn1AkCIAACtglAnbaR+fc8iZqDAAg4RQDqhDpBAARAwDYBqNM2MqfOWsgHBEDAvwSgTqgTBEAABGwTgDptI/PveRI1BwEQcIoA1Al1ggAIgIBtAlCnbWROnbWQDwiAgH8J5J06w0PDh7uP85+R2wsHrvDvAUbNQQAEskEgv9R5vv9KSVlVYGPDxs2N7FO9vn7FqnU3btzOBlzkCQIgkKsE8kudOxtbm1s66DVu4xOTY+NPdu/Zv/Ld9V+N3MvVY4x2gQAIOE7AZ+qcmY1s3Nx09dqN9EBs2rK7vaOXV+f4xOTo2OMdja1LSyuFT/mq6pbWzpnZVF/yll6VsBcIgIAfCfhMndFY/NMTZ6trd6RnT0N1MntevDjUPxDmP32nvqioDHb3nJCPqxwQRt7GeknmOVjnj7UgAAJZJeA/dWZiTzN1CvNQ+tp2oHvL9r3yAchcfJnnINcKS0AABBaNgC/VmbY97aqzvaN305bdwsFICvbCRcLRI5qpEWW4eDLMkizODIsOZJaDUBC+ggAIeJaAX9WZnj0dUSdFi+WjpKkxvCi2ohqSTLUn8yYFGjsUCLJYaZh1enZIoGIgkAoBqHOSLs/lhOGsU1Yni56YZFIlrq9iUjYV5VexowJ1ptI7sQ0IeJaAX9WZ3sOiLM06ky7VtQiwyv+UGOVRdQaaHMxWlq9n+wcqBgIgYEjAl+pMz5vRWDyr6pSnlkQ84Vb9HihmnQQHCRDwIwH/qTNtb2ZRndGuIu55kVk/UO+HKlNRzDrNEGE5CPiFgM/UmY2fxMu3OGmJ9b1OevgTjcXZQ3OaeCrTzKIuRZHhYFFgiPWG5EdJKdnWL90I9QSBfCPgM3VmeHjkP8QkSxommls6dja2GhbKppDKPUzdjEk/OdIvzLV46NoNUO0RPMtQzsGwICwEARDwIIH8Uqf8+g96D4icCGxsKCmrOt9/xYOHDVUCARBwl0B+qTMai8svneNfQCekw0PD7h4elA4CIOBNAnmnTm8eBtQKBEDAXwSgTrwlHgRAAARsE4A6bSPz17kRtQUBEMgGAagT6gQBEAAB2wSgTtvIsnEGQ54gAAL+IlDw/84N4wMCIAACIGCLANSJMwcIgAAI2CYAddpGZuvUhI1BAARyksD/Bx+iLagp4wIzAAAAAElFTkSuQmCC;" vertex="1" parent="1">
          <mxGeometry x="705" y="229.4" width="310" height="421.21" as="geometry" />
        </mxCell>
      </root>
    </mxGraphModel>
  </diagram>
</mxfile>
